G04 #@! TF.FileFunction,Soldermask,Top*
%FSLAX46Y46*%
G04 Gerber Fmt 4.6, Leading zero omitted, Abs format (unit mm)*
G04 Created by KiCad (PCBNEW 4.0.0-rc1-stable) date 12/10/2015 23:54:29*
%MOMM*%
G01*
G04 APERTURE LIST*
%ADD10C,0.100000*%
%ADD11R,2.000000X2.000000*%
%ADD12C,2.000000*%
%ADD13C,1.998980*%
%ADD14O,1.699260X3.500120*%
%ADD15R,1.574800X2.286000*%
%ADD16O,1.574800X2.286000*%
%ADD17R,2.286000X1.574800*%
%ADD18O,2.286000X1.574800*%
%ADD19R,1.600000X1.600000*%
%ADD20C,1.600000*%
%ADD21O,4.000500X2.499360*%
%ADD22R,2.540000X2.540000*%
%ADD23C,2.540000*%
%ADD24R,2.032000X2.032000*%
%ADD25O,2.032000X2.032000*%
%ADD26O,2.000000X0.900000*%
%ADD27R,2.000000X0.900000*%
%ADD28R,1.727200X2.032000*%
%ADD29O,1.727200X2.032000*%
G04 APERTURE END LIST*
D10*
D11*
X136000000Y-58750000D03*
D12*
X136000000Y-61290000D03*
D13*
X149500000Y-73000000D03*
X164500000Y-73000000D03*
D14*
X160000000Y-85500000D03*
X162540000Y-85500000D03*
X157460000Y-85500000D03*
D13*
X110080000Y-59500000D03*
X99920000Y-59500000D03*
X110080000Y-63000000D03*
X99920000Y-63000000D03*
X136000000Y-75830000D03*
X136000000Y-65670000D03*
X136000000Y-79420000D03*
X136000000Y-89580000D03*
X141420000Y-76500000D03*
X151580000Y-76500000D03*
X165080000Y-79500000D03*
X154920000Y-79500000D03*
D15*
X107540000Y-66690000D03*
D16*
X105000000Y-66690000D03*
X102460000Y-66690000D03*
X102460000Y-74310000D03*
X105000000Y-74310000D03*
X107540000Y-74310000D03*
D17*
X142690000Y-81460000D03*
D18*
X142690000Y-84000000D03*
X142690000Y-86540000D03*
X150310000Y-86540000D03*
X150310000Y-84000000D03*
X150310000Y-81460000D03*
D19*
X172000000Y-73000000D03*
D20*
X172000000Y-88000000D03*
D21*
X164000740Y-64000000D03*
X141999260Y-64000000D03*
D22*
X92250000Y-77040000D03*
D23*
X92250000Y-71960000D03*
D22*
X92250000Y-89040000D03*
D23*
X92250000Y-83960000D03*
D22*
X172000000Y-62460000D03*
D23*
X172000000Y-67540000D03*
D13*
X122500000Y-89580000D03*
X122500000Y-79420000D03*
X119000000Y-89580000D03*
X119000000Y-79420000D03*
X129500000Y-89580000D03*
X129500000Y-79420000D03*
X115500000Y-89580000D03*
X115500000Y-79420000D03*
X126000000Y-79420000D03*
X126000000Y-89580000D03*
D24*
X103750000Y-80500000D03*
D25*
X106290000Y-80500000D03*
D22*
X92250000Y-65040000D03*
D23*
X92250000Y-59960000D03*
D26*
X131500000Y-76250000D03*
X113500000Y-76250000D03*
D27*
X113500000Y-64250000D03*
D26*
X113500000Y-65750000D03*
X113500000Y-67250000D03*
X113500000Y-68750000D03*
X113500000Y-70250000D03*
X113500000Y-71750000D03*
X113500000Y-73250000D03*
X113500000Y-74750000D03*
X131500000Y-74750000D03*
X131500000Y-73250000D03*
X131500000Y-71750000D03*
X131500000Y-70250000D03*
X131500000Y-68750000D03*
X131500000Y-67250000D03*
X131500000Y-65750000D03*
X131500000Y-64250000D03*
D28*
X103750000Y-86500000D03*
D29*
X106290000Y-86500000D03*
X108830000Y-86500000D03*
M02*
