G04 #@! TF.FileFunction,Other,Fab,Top*
%FSLAX46Y46*%
G04 Gerber Fmt 4.6, Leading zero omitted, Abs format (unit mm)*
G04 Created by KiCad (PCBNEW 4.0.0-rc1-stable) date 12/10/2015 23:54:29*
%MOMM*%
G01*
G04 APERTURE LIST*
%ADD10C,0.100000*%
%ADD11C,0.152400*%
%ADD12C,0.150000*%
G04 APERTURE END LIST*
D10*
D11*
X131500000Y-57250000D02*
X131500000Y-77250000D01*
X113500000Y-77250000D02*
X131500000Y-77250000D01*
X113500000Y-77250000D02*
X113500000Y-57250000D01*
X113500000Y-57250000D02*
X131500000Y-57250000D01*
D12*
X139352381Y-60692857D02*
X139352381Y-61169048D01*
X138352381Y-61169048D01*
X138828571Y-60359524D02*
X138828571Y-60026190D01*
X139352381Y-59883333D02*
X139352381Y-60359524D01*
X138352381Y-60359524D01*
X138352381Y-59883333D01*
X139352381Y-59454762D02*
X138352381Y-59454762D01*
X138352381Y-59216667D01*
X138400000Y-59073809D01*
X138495238Y-58978571D01*
X138590476Y-58930952D01*
X138780952Y-58883333D01*
X138923810Y-58883333D01*
X139114286Y-58930952D01*
X139209524Y-58978571D01*
X139304762Y-59073809D01*
X139352381Y-59216667D01*
X139352381Y-59454762D01*
X159333334Y-75702381D02*
X158761905Y-75702381D01*
X159047619Y-75702381D02*
X159047619Y-74702381D01*
X158952381Y-74845238D01*
X158857143Y-74940476D01*
X158761905Y-74988095D01*
X159952381Y-74702381D02*
X160047620Y-74702381D01*
X160142858Y-74750000D01*
X160190477Y-74797619D01*
X160238096Y-74892857D01*
X160285715Y-75083333D01*
X160285715Y-75321429D01*
X160238096Y-75511905D01*
X160190477Y-75607143D01*
X160142858Y-75654762D01*
X160047620Y-75702381D01*
X159952381Y-75702381D01*
X159857143Y-75654762D01*
X159809524Y-75607143D01*
X159761905Y-75511905D01*
X159714286Y-75321429D01*
X159714286Y-75083333D01*
X159761905Y-74892857D01*
X159809524Y-74797619D01*
X159857143Y-74750000D01*
X159952381Y-74702381D01*
X160904762Y-74702381D02*
X161000001Y-74702381D01*
X161095239Y-74750000D01*
X161142858Y-74797619D01*
X161190477Y-74892857D01*
X161238096Y-75083333D01*
X161238096Y-75321429D01*
X161190477Y-75511905D01*
X161142858Y-75607143D01*
X161095239Y-75654762D01*
X161000001Y-75702381D01*
X160904762Y-75702381D01*
X160809524Y-75654762D01*
X160761905Y-75607143D01*
X160714286Y-75511905D01*
X160666667Y-75321429D01*
X160666667Y-75083333D01*
X160714286Y-74892857D01*
X160761905Y-74797619D01*
X160809524Y-74750000D01*
X160904762Y-74702381D01*
X158261905Y-81618571D02*
X158404762Y-81666190D01*
X158452381Y-81713810D01*
X158500000Y-81809048D01*
X158500000Y-81951905D01*
X158452381Y-82047143D01*
X158404762Y-82094762D01*
X158309524Y-82142381D01*
X157928571Y-82142381D01*
X157928571Y-81142381D01*
X158261905Y-81142381D01*
X158357143Y-81190000D01*
X158404762Y-81237619D01*
X158452381Y-81332857D01*
X158452381Y-81428095D01*
X158404762Y-81523333D01*
X158357143Y-81570952D01*
X158261905Y-81618571D01*
X157928571Y-81618571D01*
X158785714Y-81142381D02*
X159357143Y-81142381D01*
X159071428Y-82142381D02*
X159071428Y-81142381D01*
X159833333Y-81570952D02*
X159738095Y-81523333D01*
X159690476Y-81475714D01*
X159642857Y-81380476D01*
X159642857Y-81332857D01*
X159690476Y-81237619D01*
X159738095Y-81190000D01*
X159833333Y-81142381D01*
X160023810Y-81142381D01*
X160119048Y-81190000D01*
X160166667Y-81237619D01*
X160214286Y-81332857D01*
X160214286Y-81380476D01*
X160166667Y-81475714D01*
X160119048Y-81523333D01*
X160023810Y-81570952D01*
X159833333Y-81570952D01*
X159738095Y-81618571D01*
X159690476Y-81666190D01*
X159642857Y-81761429D01*
X159642857Y-81951905D01*
X159690476Y-82047143D01*
X159738095Y-82094762D01*
X159833333Y-82142381D01*
X160023810Y-82142381D01*
X160119048Y-82094762D01*
X160166667Y-82047143D01*
X160214286Y-81951905D01*
X160214286Y-81761429D01*
X160166667Y-81666190D01*
X160119048Y-81618571D01*
X160023810Y-81570952D01*
X160833333Y-81142381D02*
X160928572Y-81142381D01*
X161023810Y-81190000D01*
X161071429Y-81237619D01*
X161119048Y-81332857D01*
X161166667Y-81523333D01*
X161166667Y-81761429D01*
X161119048Y-81951905D01*
X161071429Y-82047143D01*
X161023810Y-82094762D01*
X160928572Y-82142381D01*
X160833333Y-82142381D01*
X160738095Y-82094762D01*
X160690476Y-82047143D01*
X160642857Y-81951905D01*
X160595238Y-81761429D01*
X160595238Y-81523333D01*
X160642857Y-81332857D01*
X160690476Y-81237619D01*
X160738095Y-81190000D01*
X160833333Y-81142381D01*
X161738095Y-81570952D02*
X161642857Y-81523333D01*
X161595238Y-81475714D01*
X161547619Y-81380476D01*
X161547619Y-81332857D01*
X161595238Y-81237619D01*
X161642857Y-81190000D01*
X161738095Y-81142381D01*
X161928572Y-81142381D01*
X162023810Y-81190000D01*
X162071429Y-81237619D01*
X162119048Y-81332857D01*
X162119048Y-81380476D01*
X162071429Y-81475714D01*
X162023810Y-81523333D01*
X161928572Y-81570952D01*
X161738095Y-81570952D01*
X161642857Y-81618571D01*
X161595238Y-81666190D01*
X161547619Y-81761429D01*
X161547619Y-81951905D01*
X161595238Y-82047143D01*
X161642857Y-82094762D01*
X161738095Y-82142381D01*
X161928572Y-82142381D01*
X162023810Y-82094762D01*
X162071429Y-82047143D01*
X162119048Y-81951905D01*
X162119048Y-81761429D01*
X162071429Y-81666190D01*
X162023810Y-81618571D01*
X161928572Y-81570952D01*
X100975715Y-56142381D02*
X100404286Y-56142381D01*
X100690000Y-56142381D02*
X100690000Y-55142381D01*
X100594762Y-55285238D01*
X100499524Y-55380476D01*
X100404286Y-55428095D01*
X101404286Y-56142381D02*
X101404286Y-55142381D01*
X101975715Y-56142381D02*
X101547143Y-55570952D01*
X101975715Y-55142381D02*
X101404286Y-55713810D01*
X100499524Y-59642381D02*
X99928095Y-59642381D01*
X100213809Y-59642381D02*
X100213809Y-58642381D01*
X100118571Y-58785238D01*
X100023333Y-58880476D01*
X99928095Y-58928095D01*
X101118571Y-58642381D02*
X101213810Y-58642381D01*
X101309048Y-58690000D01*
X101356667Y-58737619D01*
X101404286Y-58832857D01*
X101451905Y-59023333D01*
X101451905Y-59261429D01*
X101404286Y-59451905D01*
X101356667Y-59547143D01*
X101309048Y-59594762D01*
X101213810Y-59642381D01*
X101118571Y-59642381D01*
X101023333Y-59594762D01*
X100975714Y-59547143D01*
X100928095Y-59451905D01*
X100880476Y-59261429D01*
X100880476Y-59023333D01*
X100928095Y-58832857D01*
X100975714Y-58737619D01*
X101023333Y-58690000D01*
X101118571Y-58642381D01*
X101880476Y-59642381D02*
X101880476Y-58642381D01*
X102451905Y-59642381D02*
X102023333Y-59070952D01*
X102451905Y-58642381D02*
X101880476Y-59213810D01*
X138952381Y-71666666D02*
X138952381Y-72238095D01*
X138952381Y-71952381D02*
X137952381Y-71952381D01*
X138095238Y-72047619D01*
X138190476Y-72142857D01*
X138238095Y-72238095D01*
X137952381Y-71047619D02*
X137952381Y-70952380D01*
X138000000Y-70857142D01*
X138047619Y-70809523D01*
X138142857Y-70761904D01*
X138333333Y-70714285D01*
X138571429Y-70714285D01*
X138761905Y-70761904D01*
X138857143Y-70809523D01*
X138904762Y-70857142D01*
X138952381Y-70952380D01*
X138952381Y-71047619D01*
X138904762Y-71142857D01*
X138857143Y-71190476D01*
X138761905Y-71238095D01*
X138571429Y-71285714D01*
X138333333Y-71285714D01*
X138142857Y-71238095D01*
X138047619Y-71190476D01*
X138000000Y-71142857D01*
X137952381Y-71047619D01*
X137952381Y-70095238D02*
X137952381Y-69999999D01*
X138000000Y-69904761D01*
X138047619Y-69857142D01*
X138142857Y-69809523D01*
X138333333Y-69761904D01*
X138571429Y-69761904D01*
X138761905Y-69809523D01*
X138857143Y-69857142D01*
X138904762Y-69904761D01*
X138952381Y-69999999D01*
X138952381Y-70095238D01*
X138904762Y-70190476D01*
X138857143Y-70238095D01*
X138761905Y-70285714D01*
X138571429Y-70333333D01*
X138333333Y-70333333D01*
X138142857Y-70285714D01*
X138047619Y-70238095D01*
X138000000Y-70190476D01*
X137952381Y-70095238D01*
X137702381Y-84285714D02*
X137702381Y-84476191D01*
X137750000Y-84571429D01*
X137797619Y-84619048D01*
X137940476Y-84714286D01*
X138130952Y-84761905D01*
X138511905Y-84761905D01*
X138607143Y-84714286D01*
X138654762Y-84666667D01*
X138702381Y-84571429D01*
X138702381Y-84380952D01*
X138654762Y-84285714D01*
X138607143Y-84238095D01*
X138511905Y-84190476D01*
X138273810Y-84190476D01*
X138178571Y-84238095D01*
X138130952Y-84285714D01*
X138083333Y-84380952D01*
X138083333Y-84571429D01*
X138130952Y-84666667D01*
X138178571Y-84714286D01*
X138273810Y-84761905D01*
X138130952Y-83619048D02*
X138083333Y-83714286D01*
X138035714Y-83761905D01*
X137940476Y-83809524D01*
X137892857Y-83809524D01*
X137797619Y-83761905D01*
X137750000Y-83714286D01*
X137702381Y-83619048D01*
X137702381Y-83428571D01*
X137750000Y-83333333D01*
X137797619Y-83285714D01*
X137892857Y-83238095D01*
X137940476Y-83238095D01*
X138035714Y-83285714D01*
X138083333Y-83333333D01*
X138130952Y-83428571D01*
X138130952Y-83619048D01*
X138178571Y-83714286D01*
X138226190Y-83761905D01*
X138321429Y-83809524D01*
X138511905Y-83809524D01*
X138607143Y-83761905D01*
X138654762Y-83714286D01*
X138702381Y-83619048D01*
X138702381Y-83428571D01*
X138654762Y-83333333D01*
X138607143Y-83285714D01*
X138511905Y-83238095D01*
X138321429Y-83238095D01*
X138226190Y-83285714D01*
X138178571Y-83333333D01*
X138130952Y-83428571D01*
X149024286Y-79762381D02*
X149643334Y-79762381D01*
X149310000Y-80143333D01*
X149452858Y-80143333D01*
X149548096Y-80190952D01*
X149595715Y-80238571D01*
X149643334Y-80333810D01*
X149643334Y-80571905D01*
X149595715Y-80667143D01*
X149548096Y-80714762D01*
X149452858Y-80762381D01*
X149167143Y-80762381D01*
X149071905Y-80714762D01*
X149024286Y-80667143D01*
X150119524Y-80762381D02*
X150310000Y-80762381D01*
X150405239Y-80714762D01*
X150452858Y-80667143D01*
X150548096Y-80524286D01*
X150595715Y-80333810D01*
X150595715Y-79952857D01*
X150548096Y-79857619D01*
X150500477Y-79810000D01*
X150405239Y-79762381D01*
X150214762Y-79762381D01*
X150119524Y-79810000D01*
X150071905Y-79857619D01*
X150024286Y-79952857D01*
X150024286Y-80190952D01*
X150071905Y-80286190D01*
X150119524Y-80333810D01*
X150214762Y-80381429D01*
X150405239Y-80381429D01*
X150500477Y-80333810D01*
X150548096Y-80286190D01*
X150595715Y-80190952D01*
X151214762Y-79762381D02*
X151310001Y-79762381D01*
X151405239Y-79810000D01*
X151452858Y-79857619D01*
X151500477Y-79952857D01*
X151548096Y-80143333D01*
X151548096Y-80381429D01*
X151500477Y-80571905D01*
X151452858Y-80667143D01*
X151405239Y-80714762D01*
X151310001Y-80762381D01*
X151214762Y-80762381D01*
X151119524Y-80714762D01*
X151071905Y-80667143D01*
X151024286Y-80571905D01*
X150976667Y-80381429D01*
X150976667Y-80143333D01*
X151024286Y-79952857D01*
X151071905Y-79857619D01*
X151119524Y-79810000D01*
X151214762Y-79762381D01*
X159988096Y-76785714D02*
X159988096Y-77452381D01*
X159750000Y-76404762D02*
X159511905Y-77119048D01*
X160130953Y-77119048D01*
X160416667Y-76452381D02*
X161083334Y-76452381D01*
X160654762Y-77452381D01*
X161654762Y-76452381D02*
X161750001Y-76452381D01*
X161845239Y-76500000D01*
X161892858Y-76547619D01*
X161940477Y-76642857D01*
X161988096Y-76833333D01*
X161988096Y-77071429D01*
X161940477Y-77261905D01*
X161892858Y-77357143D01*
X161845239Y-77404762D01*
X161750001Y-77452381D01*
X161654762Y-77452381D01*
X161559524Y-77404762D01*
X161511905Y-77357143D01*
X161464286Y-77261905D01*
X161416667Y-77071429D01*
X161416667Y-76833333D01*
X161464286Y-76642857D01*
X161511905Y-76547619D01*
X161559524Y-76500000D01*
X161654762Y-76452381D01*
X103714286Y-69015714D02*
X103714286Y-69682381D01*
X103476190Y-68634762D02*
X103238095Y-69349048D01*
X103857143Y-69349048D01*
X104238095Y-69682381D02*
X104238095Y-68682381D01*
X104809524Y-69682381D01*
X104809524Y-68682381D01*
X105190476Y-68682381D02*
X105809524Y-68682381D01*
X105476190Y-69063333D01*
X105619048Y-69063333D01*
X105714286Y-69110952D01*
X105761905Y-69158571D01*
X105809524Y-69253810D01*
X105809524Y-69491905D01*
X105761905Y-69587143D01*
X105714286Y-69634762D01*
X105619048Y-69682381D01*
X105333333Y-69682381D01*
X105238095Y-69634762D01*
X105190476Y-69587143D01*
X106714286Y-68682381D02*
X106238095Y-68682381D01*
X106190476Y-69158571D01*
X106238095Y-69110952D01*
X106333333Y-69063333D01*
X106571429Y-69063333D01*
X106666667Y-69110952D01*
X106714286Y-69158571D01*
X106761905Y-69253810D01*
X106761905Y-69491905D01*
X106714286Y-69587143D01*
X106666667Y-69634762D01*
X106571429Y-69682381D01*
X106333333Y-69682381D01*
X106238095Y-69634762D01*
X106190476Y-69587143D01*
X145682381Y-87833333D02*
X144682381Y-87833333D01*
X145396667Y-87499999D01*
X144682381Y-87166666D01*
X145682381Y-87166666D01*
X144682381Y-86500000D02*
X144682381Y-86309523D01*
X144730000Y-86214285D01*
X144825238Y-86119047D01*
X145015714Y-86071428D01*
X145349048Y-86071428D01*
X145539524Y-86119047D01*
X145634762Y-86214285D01*
X145682381Y-86309523D01*
X145682381Y-86500000D01*
X145634762Y-86595238D01*
X145539524Y-86690476D01*
X145349048Y-86738095D01*
X145015714Y-86738095D01*
X144825238Y-86690476D01*
X144730000Y-86595238D01*
X144682381Y-86500000D01*
X145587143Y-85071428D02*
X145634762Y-85119047D01*
X145682381Y-85261904D01*
X145682381Y-85357142D01*
X145634762Y-85500000D01*
X145539524Y-85595238D01*
X145444286Y-85642857D01*
X145253810Y-85690476D01*
X145110952Y-85690476D01*
X144920476Y-85642857D01*
X144825238Y-85595238D01*
X144730000Y-85500000D01*
X144682381Y-85357142D01*
X144682381Y-85261904D01*
X144730000Y-85119047D01*
X144777619Y-85071428D01*
X144682381Y-84738095D02*
X144682381Y-84119047D01*
X145063333Y-84452381D01*
X145063333Y-84309523D01*
X145110952Y-84214285D01*
X145158571Y-84166666D01*
X145253810Y-84119047D01*
X145491905Y-84119047D01*
X145587143Y-84166666D01*
X145634762Y-84214285D01*
X145682381Y-84309523D01*
X145682381Y-84595238D01*
X145634762Y-84690476D01*
X145587143Y-84738095D01*
X144682381Y-83500000D02*
X144682381Y-83404761D01*
X144730000Y-83309523D01*
X144777619Y-83261904D01*
X144872857Y-83214285D01*
X145063333Y-83166666D01*
X145301429Y-83166666D01*
X145491905Y-83214285D01*
X145587143Y-83261904D01*
X145634762Y-83309523D01*
X145682381Y-83404761D01*
X145682381Y-83500000D01*
X145634762Y-83595238D01*
X145587143Y-83642857D01*
X145491905Y-83690476D01*
X145301429Y-83738095D01*
X145063333Y-83738095D01*
X144872857Y-83690476D01*
X144777619Y-83642857D01*
X144730000Y-83595238D01*
X144682381Y-83500000D01*
X145015714Y-82309523D02*
X145682381Y-82309523D01*
X144634762Y-82547619D02*
X145349048Y-82785714D01*
X145349048Y-82166666D01*
X145682381Y-81261904D02*
X145682381Y-81833333D01*
X145682381Y-81547619D02*
X144682381Y-81547619D01*
X144825238Y-81642857D01*
X144920476Y-81738095D01*
X144968095Y-81833333D01*
X145682381Y-80833333D02*
X144682381Y-80833333D01*
X145396667Y-80499999D01*
X144682381Y-80166666D01*
X145682381Y-80166666D01*
X166702381Y-83500000D02*
X166702381Y-83404761D01*
X166750000Y-83309523D01*
X166797619Y-83261904D01*
X166892857Y-83214285D01*
X167083333Y-83166666D01*
X167321429Y-83166666D01*
X167511905Y-83214285D01*
X167607143Y-83261904D01*
X167654762Y-83309523D01*
X167702381Y-83404761D01*
X167702381Y-83500000D01*
X167654762Y-83595238D01*
X167607143Y-83642857D01*
X167511905Y-83690476D01*
X167321429Y-83738095D01*
X167083333Y-83738095D01*
X166892857Y-83690476D01*
X166797619Y-83642857D01*
X166750000Y-83595238D01*
X166702381Y-83500000D01*
X167607143Y-82738095D02*
X167654762Y-82690476D01*
X167702381Y-82738095D01*
X167654762Y-82785714D01*
X167607143Y-82738095D01*
X167702381Y-82738095D01*
X167702381Y-81738095D02*
X167702381Y-82309524D01*
X167702381Y-82023810D02*
X166702381Y-82023810D01*
X166845238Y-82119048D01*
X166940476Y-82214286D01*
X166988095Y-82309524D01*
X167035714Y-80119047D02*
X167702381Y-80119047D01*
X166654762Y-80357143D02*
X167369048Y-80595238D01*
X167369048Y-79976190D01*
X166702381Y-79404762D02*
X166702381Y-79309523D01*
X166750000Y-79214285D01*
X166797619Y-79166666D01*
X166892857Y-79119047D01*
X167083333Y-79071428D01*
X167321429Y-79071428D01*
X167511905Y-79119047D01*
X167607143Y-79166666D01*
X167654762Y-79214285D01*
X167702381Y-79309523D01*
X167702381Y-79404762D01*
X167654762Y-79500000D01*
X167607143Y-79547619D01*
X167511905Y-79595238D01*
X167321429Y-79642857D01*
X167083333Y-79642857D01*
X166892857Y-79595238D01*
X166797619Y-79547619D01*
X166750000Y-79500000D01*
X166702381Y-79404762D01*
X166702381Y-78452381D02*
X166702381Y-78357142D01*
X166750000Y-78261904D01*
X166797619Y-78214285D01*
X166892857Y-78166666D01*
X167083333Y-78119047D01*
X167321429Y-78119047D01*
X167511905Y-78166666D01*
X167607143Y-78214285D01*
X167654762Y-78261904D01*
X167702381Y-78357142D01*
X167702381Y-78452381D01*
X167654762Y-78547619D01*
X167607143Y-78595238D01*
X167511905Y-78642857D01*
X167321429Y-78690476D01*
X167083333Y-78690476D01*
X166892857Y-78642857D01*
X166797619Y-78595238D01*
X166750000Y-78547619D01*
X166702381Y-78452381D01*
X166702381Y-77833333D02*
X167702381Y-77500000D01*
X166702381Y-77166666D01*
X151190477Y-63928571D02*
X150857143Y-63928571D01*
X150857143Y-64452381D02*
X150857143Y-63452381D01*
X151333334Y-63452381D01*
X151714286Y-63452381D02*
X151714286Y-64261905D01*
X151761905Y-64357143D01*
X151809524Y-64404762D01*
X151904762Y-64452381D01*
X152095239Y-64452381D01*
X152190477Y-64404762D01*
X152238096Y-64357143D01*
X152285715Y-64261905D01*
X152285715Y-63452381D01*
X152714286Y-64404762D02*
X152857143Y-64452381D01*
X153095239Y-64452381D01*
X153190477Y-64404762D01*
X153238096Y-64357143D01*
X153285715Y-64261905D01*
X153285715Y-64166667D01*
X153238096Y-64071429D01*
X153190477Y-64023810D01*
X153095239Y-63976190D01*
X152904762Y-63928571D01*
X152809524Y-63880952D01*
X152761905Y-63833333D01*
X152714286Y-63738095D01*
X152714286Y-63642857D01*
X152761905Y-63547619D01*
X152809524Y-63500000D01*
X152904762Y-63452381D01*
X153142858Y-63452381D01*
X153285715Y-63500000D01*
X153714286Y-63928571D02*
X154047620Y-63928571D01*
X154190477Y-64452381D02*
X153714286Y-64452381D01*
X153714286Y-63452381D01*
X154190477Y-63452381D01*
X97258571Y-75333333D02*
X97306190Y-75190476D01*
X97353810Y-75142857D01*
X97449048Y-75095238D01*
X97591905Y-75095238D01*
X97687143Y-75142857D01*
X97734762Y-75190476D01*
X97782381Y-75285714D01*
X97782381Y-75666667D01*
X96782381Y-75666667D01*
X96782381Y-75333333D01*
X96830000Y-75238095D01*
X96877619Y-75190476D01*
X96972857Y-75142857D01*
X97068095Y-75142857D01*
X97163333Y-75190476D01*
X97210952Y-75238095D01*
X97258571Y-75333333D01*
X97258571Y-75666667D01*
X96782381Y-74809524D02*
X96782381Y-74238095D01*
X97782381Y-74523810D02*
X96782381Y-74523810D01*
X97782381Y-73904762D02*
X96782381Y-73904762D01*
X97782381Y-73333333D01*
X96782381Y-73333333D01*
X97401429Y-87880952D02*
X97401429Y-87119047D01*
X97401429Y-85880952D02*
X97401429Y-85119047D01*
X97782381Y-85499999D02*
X97020476Y-85499999D01*
X167372381Y-66190476D02*
X167372381Y-66666667D01*
X166372381Y-66666667D01*
X167086667Y-65904762D02*
X167086667Y-65428571D01*
X167372381Y-66000000D02*
X166372381Y-65666667D01*
X167372381Y-65333333D01*
X167372381Y-65000000D02*
X166372381Y-65000000D01*
X167086667Y-64666666D01*
X166372381Y-64333333D01*
X167372381Y-64333333D01*
X167372381Y-63857143D02*
X166372381Y-63857143D01*
X166372381Y-63476190D01*
X166420000Y-63380952D01*
X166467619Y-63333333D01*
X166562857Y-63285714D01*
X166705714Y-63285714D01*
X166800952Y-63333333D01*
X166848571Y-63380952D01*
X166896190Y-63476190D01*
X166896190Y-63857143D01*
X122952381Y-92464285D02*
X122952381Y-93035714D01*
X122952381Y-92750000D02*
X121952381Y-92750000D01*
X122095238Y-92845238D01*
X122190476Y-92940476D01*
X122238095Y-93035714D01*
X122952381Y-92035714D02*
X121952381Y-92035714D01*
X122952381Y-91464285D02*
X122380952Y-91892857D01*
X121952381Y-91464285D02*
X122523810Y-92035714D01*
X119452381Y-92464285D02*
X119452381Y-93035714D01*
X119452381Y-92750000D02*
X118452381Y-92750000D01*
X118595238Y-92845238D01*
X118690476Y-92940476D01*
X118738095Y-93035714D01*
X119452381Y-92035714D02*
X118452381Y-92035714D01*
X119452381Y-91464285D02*
X118880952Y-91892857D01*
X118452381Y-91464285D02*
X119023810Y-92035714D01*
X129952381Y-92464285D02*
X129952381Y-93035714D01*
X129952381Y-92750000D02*
X128952381Y-92750000D01*
X129095238Y-92845238D01*
X129190476Y-92940476D01*
X129238095Y-93035714D01*
X129952381Y-92035714D02*
X128952381Y-92035714D01*
X129952381Y-91464285D02*
X129380952Y-91892857D01*
X128952381Y-91464285D02*
X129523810Y-92035714D01*
X115952381Y-92464285D02*
X115952381Y-93035714D01*
X115952381Y-92750000D02*
X114952381Y-92750000D01*
X115095238Y-92845238D01*
X115190476Y-92940476D01*
X115238095Y-93035714D01*
X115952381Y-92035714D02*
X114952381Y-92035714D01*
X115952381Y-91464285D02*
X115380952Y-91892857D01*
X114952381Y-91464285D02*
X115523810Y-92035714D01*
X126452381Y-92464285D02*
X126452381Y-93035714D01*
X126452381Y-92750000D02*
X125452381Y-92750000D01*
X125595238Y-92845238D01*
X125690476Y-92940476D01*
X125738095Y-93035714D01*
X126452381Y-92035714D02*
X125452381Y-92035714D01*
X126452381Y-91464285D02*
X125880952Y-91892857D01*
X125452381Y-91464285D02*
X126023810Y-92035714D01*
X102964286Y-78202381D02*
X102964286Y-77202381D01*
X103345239Y-77202381D01*
X103440477Y-77250000D01*
X103488096Y-77297619D01*
X103535715Y-77392857D01*
X103535715Y-77535714D01*
X103488096Y-77630952D01*
X103440477Y-77678571D01*
X103345239Y-77726190D01*
X102964286Y-77726190D01*
X104535715Y-78202381D02*
X104202381Y-77726190D01*
X103964286Y-78202381D02*
X103964286Y-77202381D01*
X104345239Y-77202381D01*
X104440477Y-77250000D01*
X104488096Y-77297619D01*
X104535715Y-77392857D01*
X104535715Y-77535714D01*
X104488096Y-77630952D01*
X104440477Y-77678571D01*
X104345239Y-77726190D01*
X103964286Y-77726190D01*
X105154762Y-77202381D02*
X105345239Y-77202381D01*
X105440477Y-77250000D01*
X105535715Y-77345238D01*
X105583334Y-77535714D01*
X105583334Y-77869048D01*
X105535715Y-78059524D01*
X105440477Y-78154762D01*
X105345239Y-78202381D01*
X105154762Y-78202381D01*
X105059524Y-78154762D01*
X104964286Y-78059524D01*
X104916667Y-77869048D01*
X104916667Y-77535714D01*
X104964286Y-77345238D01*
X105059524Y-77250000D01*
X105154762Y-77202381D01*
X106535715Y-77250000D02*
X106440477Y-77202381D01*
X106297620Y-77202381D01*
X106154762Y-77250000D01*
X106059524Y-77345238D01*
X106011905Y-77440476D01*
X105964286Y-77630952D01*
X105964286Y-77773810D01*
X106011905Y-77964286D01*
X106059524Y-78059524D01*
X106154762Y-78154762D01*
X106297620Y-78202381D01*
X106392858Y-78202381D01*
X106535715Y-78154762D01*
X106583334Y-78107143D01*
X106583334Y-77773810D01*
X106392858Y-77773810D01*
X97687143Y-63761904D02*
X97734762Y-63809523D01*
X97782381Y-63952380D01*
X97782381Y-64047618D01*
X97734762Y-64190476D01*
X97639524Y-64285714D01*
X97544286Y-64333333D01*
X97353810Y-64380952D01*
X97210952Y-64380952D01*
X97020476Y-64333333D01*
X96925238Y-64285714D01*
X96830000Y-64190476D01*
X96782381Y-64047618D01*
X96782381Y-63952380D01*
X96830000Y-63809523D01*
X96877619Y-63761904D01*
X96782381Y-63142857D02*
X96782381Y-62952380D01*
X96830000Y-62857142D01*
X96925238Y-62761904D01*
X97115714Y-62714285D01*
X97449048Y-62714285D01*
X97639524Y-62761904D01*
X97734762Y-62857142D01*
X97782381Y-62952380D01*
X97782381Y-63142857D01*
X97734762Y-63238095D01*
X97639524Y-63333333D01*
X97449048Y-63380952D01*
X97115714Y-63380952D01*
X96925238Y-63333333D01*
X96830000Y-63238095D01*
X96782381Y-63142857D01*
X97782381Y-62285714D02*
X96782381Y-62285714D01*
X97782381Y-61714285D01*
X96782381Y-61714285D01*
X97782381Y-61238095D02*
X96782381Y-61238095D01*
X97782381Y-60666666D01*
X96782381Y-60666666D01*
X114857143Y-64178571D02*
X115190477Y-64178571D01*
X115333334Y-64702381D02*
X114857143Y-64702381D01*
X114857143Y-63702381D01*
X115333334Y-63702381D01*
X115714286Y-64654762D02*
X115857143Y-64702381D01*
X116095239Y-64702381D01*
X116190477Y-64654762D01*
X116238096Y-64607143D01*
X116285715Y-64511905D01*
X116285715Y-64416667D01*
X116238096Y-64321429D01*
X116190477Y-64273810D01*
X116095239Y-64226190D01*
X115904762Y-64178571D01*
X115809524Y-64130952D01*
X115761905Y-64083333D01*
X115714286Y-63988095D01*
X115714286Y-63892857D01*
X115761905Y-63797619D01*
X115809524Y-63750000D01*
X115904762Y-63702381D01*
X116142858Y-63702381D01*
X116285715Y-63750000D01*
X116714286Y-64702381D02*
X116714286Y-63702381D01*
X117095239Y-63702381D01*
X117190477Y-63750000D01*
X117238096Y-63797619D01*
X117285715Y-63892857D01*
X117285715Y-64035714D01*
X117238096Y-64130952D01*
X117190477Y-64178571D01*
X117095239Y-64226190D01*
X116714286Y-64226190D01*
X117714286Y-64321429D02*
X118476191Y-64321429D01*
X119476191Y-64702381D02*
X118904762Y-64702381D01*
X119190476Y-64702381D02*
X119190476Y-63702381D01*
X119095238Y-63845238D01*
X119000000Y-63940476D01*
X118904762Y-63988095D01*
X119809524Y-63702381D02*
X120428572Y-63702381D01*
X120095238Y-64083333D01*
X120238096Y-64083333D01*
X120333334Y-64130952D01*
X120380953Y-64178571D01*
X120428572Y-64273810D01*
X120428572Y-64511905D01*
X120380953Y-64607143D01*
X120333334Y-64654762D01*
X120238096Y-64702381D01*
X119952381Y-64702381D01*
X119857143Y-64654762D01*
X119809524Y-64607143D01*
X120857143Y-64321429D02*
X121619048Y-64321429D01*
X122000000Y-63702381D02*
X122238095Y-64702381D01*
X122428572Y-63988095D01*
X122619048Y-64702381D01*
X122857143Y-63702381D01*
X123809524Y-64702381D02*
X123476190Y-64226190D01*
X123238095Y-64702381D02*
X123238095Y-63702381D01*
X123619048Y-63702381D01*
X123714286Y-63750000D01*
X123761905Y-63797619D01*
X123809524Y-63892857D01*
X123809524Y-64035714D01*
X123761905Y-64130952D01*
X123714286Y-64178571D01*
X123619048Y-64226190D01*
X123238095Y-64226190D01*
X124428571Y-63702381D02*
X124619048Y-63702381D01*
X124714286Y-63750000D01*
X124809524Y-63845238D01*
X124857143Y-64035714D01*
X124857143Y-64369048D01*
X124809524Y-64559524D01*
X124714286Y-64654762D01*
X124619048Y-64702381D01*
X124428571Y-64702381D01*
X124333333Y-64654762D01*
X124238095Y-64559524D01*
X124190476Y-64369048D01*
X124190476Y-64035714D01*
X124238095Y-63845238D01*
X124333333Y-63750000D01*
X124428571Y-63702381D01*
X125476190Y-63702381D02*
X125666667Y-63702381D01*
X125761905Y-63750000D01*
X125857143Y-63845238D01*
X125904762Y-64035714D01*
X125904762Y-64369048D01*
X125857143Y-64559524D01*
X125761905Y-64654762D01*
X125666667Y-64702381D01*
X125476190Y-64702381D01*
X125380952Y-64654762D01*
X125285714Y-64559524D01*
X125238095Y-64369048D01*
X125238095Y-64035714D01*
X125285714Y-63845238D01*
X125380952Y-63750000D01*
X125476190Y-63702381D01*
X126333333Y-64702381D02*
X126333333Y-63702381D01*
X126666667Y-64416667D01*
X127000000Y-63702381D01*
X127000000Y-64702381D01*
X127476190Y-64321429D02*
X128238095Y-64321429D01*
X128904761Y-63702381D02*
X129000000Y-63702381D01*
X129095238Y-63750000D01*
X129142857Y-63797619D01*
X129190476Y-63892857D01*
X129238095Y-64083333D01*
X129238095Y-64321429D01*
X129190476Y-64511905D01*
X129142857Y-64607143D01*
X129095238Y-64654762D01*
X129000000Y-64702381D01*
X128904761Y-64702381D01*
X128809523Y-64654762D01*
X128761904Y-64607143D01*
X128714285Y-64511905D01*
X128666666Y-64321429D01*
X128666666Y-64083333D01*
X128714285Y-63892857D01*
X128761904Y-63797619D01*
X128809523Y-63750000D01*
X128904761Y-63702381D01*
X129619047Y-63797619D02*
X129666666Y-63750000D01*
X129761904Y-63702381D01*
X130000000Y-63702381D01*
X130095238Y-63750000D01*
X130142857Y-63797619D01*
X130190476Y-63892857D01*
X130190476Y-63988095D01*
X130142857Y-64130952D01*
X129571428Y-64702381D01*
X130190476Y-64702381D01*
X104214286Y-84452381D02*
X103880952Y-83976190D01*
X103642857Y-84452381D02*
X103642857Y-83452381D01*
X104023810Y-83452381D01*
X104119048Y-83500000D01*
X104166667Y-83547619D01*
X104214286Y-83642857D01*
X104214286Y-83785714D01*
X104166667Y-83880952D01*
X104119048Y-83928571D01*
X104023810Y-83976190D01*
X103642857Y-83976190D01*
X104547619Y-83452381D02*
X105214286Y-84452381D01*
X105214286Y-83452381D02*
X104547619Y-84452381D01*
X106214286Y-83452381D02*
X106785715Y-83452381D01*
X106500000Y-84452381D02*
X106500000Y-83452381D01*
X107023810Y-83452381D02*
X107690477Y-84452381D01*
X107690477Y-83452381D02*
X107023810Y-84452381D01*
X109357144Y-83500000D02*
X109261906Y-83452381D01*
X109119049Y-83452381D01*
X108976191Y-83500000D01*
X108880953Y-83595238D01*
X108833334Y-83690476D01*
X108785715Y-83880952D01*
X108785715Y-84023810D01*
X108833334Y-84214286D01*
X108880953Y-84309524D01*
X108976191Y-84404762D01*
X109119049Y-84452381D01*
X109214287Y-84452381D01*
X109357144Y-84404762D01*
X109404763Y-84357143D01*
X109404763Y-84023810D01*
X109214287Y-84023810D01*
M02*
