%FSLAX45Y45*%
G04 Gerber Fmt 4.5, Leading zero omitted, Abs format (unit mm)*
G04 Created by KiCad (PCBNEW 4.0.0-rc1-stable) date 12/10/2015 23:54:31*
%MOMM*%
G01*
G04 APERTURE LIST*
%ADD10C,0.127000*%
%ADD11C,0.100000*%
%ADD12C,0.200000*%
%ADD13C,0.300000*%
G04 APERTURE END LIST*
D10*
D11*
X8636000Y-9271000D02*
X8636000Y-5588000D01*
X17653000Y-9271000D02*
X8636000Y-9271000D01*
X17653000Y-5588000D02*
X17653000Y-9271000D01*
X8636000Y-5588000D02*
X17653000Y-5588000D01*
D12*
X10355000Y-7605000D02*
X10395000Y-7645000D01*
X10395000Y-7605000D02*
X10355000Y-7645000D01*
X11055000Y-6480000D02*
X11095000Y-6520000D01*
X11095000Y-6480000D02*
X11055000Y-6520000D01*
X11155000Y-6555000D02*
X11195000Y-6595000D01*
X11195000Y-6555000D02*
X11155000Y-6595000D01*
X11155000Y-7155000D02*
X11195000Y-7195000D01*
X11195000Y-7155000D02*
X11155000Y-7195000D01*
X11155000Y-7305000D02*
X11195000Y-7345000D01*
X11195000Y-7305000D02*
X11155000Y-7345000D01*
X11155000Y-7455000D02*
X11195000Y-7495000D01*
X11195000Y-7455000D02*
X11155000Y-7495000D01*
X11155000Y-7830000D02*
X11195000Y-7870000D01*
X11195000Y-7830000D02*
X11155000Y-7870000D01*
X11230000Y-8830000D02*
X11270000Y-8870000D01*
X11270000Y-8830000D02*
X11230000Y-8870000D01*
X11680000Y-7780000D02*
X11720000Y-7820000D01*
X11720000Y-7780000D02*
X11680000Y-7820000D01*
X12030000Y-7780000D02*
X12070000Y-7820000D01*
X12070000Y-7780000D02*
X12030000Y-7820000D01*
X12380000Y-7780000D02*
X12420000Y-7820000D01*
X12420000Y-7780000D02*
X12380000Y-7820000D01*
X12780000Y-7780000D02*
X12820000Y-7820000D01*
X12820000Y-7780000D02*
X12780000Y-7820000D01*
X13280000Y-7705000D02*
X13320000Y-7745000D01*
X13320000Y-7705000D02*
X13280000Y-7745000D01*
X13305000Y-6855000D02*
X13345000Y-6895000D01*
X13345000Y-6855000D02*
X13305000Y-6895000D01*
X13355000Y-6530000D02*
X13395000Y-6570000D01*
X13395000Y-6530000D02*
X13355000Y-6570000D01*
X13380000Y-7255000D02*
X13420000Y-7295000D01*
X13420000Y-7255000D02*
X13380000Y-7295000D01*
X10286640Y-6669000D02*
G75*
G03X10286640Y-6669000I-40640J0D01*
G01*
X10286640Y-7431000D02*
G75*
G03X10286640Y-7431000I-40640J0D01*
G01*
X10540640Y-6669000D02*
G75*
G03X10540640Y-6669000I-40640J0D01*
G01*
X10540640Y-7431000D02*
G75*
G03X10540640Y-7431000I-40640J0D01*
G01*
X10794640Y-6669000D02*
G75*
G03X10794640Y-6669000I-40640J0D01*
G01*
X10794640Y-7431000D02*
G75*
G03X10794640Y-7431000I-40640J0D01*
G01*
X14309640Y-8146000D02*
G75*
G03X14309640Y-8146000I-40640J0D01*
G01*
X14309640Y-8400000D02*
G75*
G03X14309640Y-8400000I-40640J0D01*
G01*
X14309640Y-8654000D02*
G75*
G03X14309640Y-8654000I-40640J0D01*
G01*
X15071640Y-8146000D02*
G75*
G03X15071640Y-8146000I-40640J0D01*
G01*
X15071640Y-8400000D02*
G75*
G03X15071640Y-8400000I-40640J0D01*
G01*
X15071640Y-8654000D02*
G75*
G03X15071640Y-8654000I-40640J0D01*
G01*
X9992000Y-5899962D02*
X9992000Y-6000038D01*
X9941962Y-5950000D02*
X10042038Y-5950000D01*
X9992000Y-6249962D02*
X9992000Y-6350038D01*
X9941962Y-6300000D02*
X10042038Y-6300000D01*
X11008000Y-5899962D02*
X11008000Y-6000038D01*
X10957962Y-5950000D02*
X11058038Y-5950000D01*
X11008000Y-6249962D02*
X11008000Y-6350038D01*
X10957962Y-6300000D02*
X11058038Y-6300000D01*
X11550000Y-7891962D02*
X11550000Y-7992038D01*
X11499962Y-7942000D02*
X11600038Y-7942000D01*
X11550000Y-8907962D02*
X11550000Y-9008038D01*
X11499962Y-8958000D02*
X11600038Y-8958000D01*
X11900000Y-7891962D02*
X11900000Y-7992038D01*
X11849962Y-7942000D02*
X11950038Y-7942000D01*
X11900000Y-8907962D02*
X11900000Y-9008038D01*
X11849962Y-8958000D02*
X11950038Y-8958000D01*
X12250000Y-7891962D02*
X12250000Y-7992038D01*
X12199962Y-7942000D02*
X12300038Y-7942000D01*
X12250000Y-8907962D02*
X12250000Y-9008038D01*
X12199962Y-8958000D02*
X12300038Y-8958000D01*
X12600000Y-7891962D02*
X12600000Y-7992038D01*
X12549962Y-7942000D02*
X12650038Y-7942000D01*
X12600000Y-8907962D02*
X12600000Y-9008038D01*
X12549962Y-8958000D02*
X12650038Y-8958000D01*
X12950000Y-7891962D02*
X12950000Y-7992038D01*
X12899962Y-7942000D02*
X13000038Y-7942000D01*
X12950000Y-8907962D02*
X12950000Y-9008038D01*
X12899962Y-8958000D02*
X13000038Y-8958000D01*
X13600000Y-5824962D02*
X13600000Y-5925038D01*
X13549962Y-5875000D02*
X13650038Y-5875000D01*
X13600000Y-6078962D02*
X13600000Y-6179038D01*
X13549962Y-6129000D02*
X13650038Y-6129000D01*
X13600000Y-6516962D02*
X13600000Y-6617038D01*
X13549962Y-6567000D02*
X13650038Y-6567000D01*
X13600000Y-7532962D02*
X13600000Y-7633038D01*
X13549962Y-7583000D02*
X13650038Y-7583000D01*
X13600000Y-7891962D02*
X13600000Y-7992038D01*
X13549962Y-7942000D02*
X13650038Y-7942000D01*
X13600000Y-8907962D02*
X13600000Y-9008038D01*
X13549962Y-8958000D02*
X13650038Y-8958000D01*
X14142000Y-7599962D02*
X14142000Y-7700038D01*
X14091962Y-7650000D02*
X14192038Y-7650000D01*
X14950000Y-7249962D02*
X14950000Y-7350038D01*
X14899962Y-7300000D02*
X15000038Y-7300000D01*
X15158000Y-7599962D02*
X15158000Y-7700038D01*
X15107962Y-7650000D02*
X15208038Y-7650000D01*
X15492000Y-7899962D02*
X15492000Y-8000038D01*
X15441962Y-7950000D02*
X15542038Y-7950000D01*
X15746000Y-8499962D02*
X15746000Y-8600038D01*
X15695962Y-8550000D02*
X15796038Y-8550000D01*
X16000000Y-8499962D02*
X16000000Y-8600038D01*
X15949962Y-8550000D02*
X16050038Y-8550000D01*
X16254000Y-8499962D02*
X16254000Y-8600038D01*
X16203962Y-8550000D02*
X16304038Y-8550000D01*
X16450000Y-7249962D02*
X16450000Y-7350038D01*
X16399962Y-7300000D02*
X16500038Y-7300000D01*
X16508000Y-7899962D02*
X16508000Y-8000038D01*
X16457962Y-7950000D02*
X16558038Y-7950000D01*
X10410921Y-8085921D02*
X10410921Y-8014079D01*
X10339079Y-8014079D01*
X10339079Y-8085921D01*
X10410921Y-8085921D01*
X10410921Y-8685921D02*
X10410921Y-8614079D01*
X10339079Y-8614079D01*
X10339079Y-8685921D01*
X10410921Y-8685921D01*
X10664921Y-8085921D02*
X10664921Y-8014079D01*
X10593079Y-8014079D01*
X10593079Y-8085921D01*
X10664921Y-8085921D01*
X10664921Y-8685921D02*
X10664921Y-8614079D01*
X10593079Y-8614079D01*
X10593079Y-8685921D01*
X10664921Y-8685921D01*
X10918921Y-8685921D02*
X10918921Y-8614079D01*
X10847079Y-8614079D01*
X10847079Y-8685921D01*
X10918921Y-8685921D01*
X17200000Y-7355000D02*
X17255000Y-7300000D01*
X17200000Y-7245000D01*
X17145000Y-7300000D01*
X17200000Y-7355000D01*
X17200000Y-8855000D02*
X17255000Y-8800000D01*
X17200000Y-8745000D01*
X17145000Y-8800000D01*
X17200000Y-8855000D01*
X14124869Y-6324943D02*
X14274983Y-6475057D01*
X14274983Y-6324943D02*
X14124869Y-6475057D01*
X14274983Y-6400000D02*
G75*
G03X14274983Y-6400000I-75057J0D01*
G01*
X16325017Y-6324943D02*
X16475131Y-6475057D01*
X16475131Y-6324943D02*
X16325017Y-6475057D01*
X16475131Y-6400000D02*
G75*
G03X16475131Y-6400000I-75057J0D01*
G01*
X9148800Y-5919800D02*
X9301200Y-6072200D01*
X9301200Y-5919800D02*
X9148800Y-6072200D01*
X9225000Y-5919800D02*
X9225000Y-6072200D01*
X9148800Y-5996000D02*
X9301200Y-5996000D01*
X9148800Y-6427800D02*
X9301200Y-6580200D01*
X9301200Y-6427800D02*
X9148800Y-6580200D01*
X9225000Y-6427800D02*
X9225000Y-6580200D01*
X9148800Y-6504000D02*
X9301200Y-6504000D01*
X9148800Y-7119800D02*
X9301200Y-7272200D01*
X9301200Y-7119800D02*
X9148800Y-7272200D01*
X9225000Y-7119800D02*
X9225000Y-7272200D01*
X9148800Y-7196000D02*
X9301200Y-7196000D01*
X9148800Y-7627800D02*
X9301200Y-7780200D01*
X9301200Y-7627800D02*
X9148800Y-7780200D01*
X9225000Y-7627800D02*
X9225000Y-7780200D01*
X9148800Y-7704000D02*
X9301200Y-7704000D01*
X9148800Y-8319800D02*
X9301200Y-8472200D01*
X9301200Y-8319800D02*
X9148800Y-8472200D01*
X9225000Y-8319800D02*
X9225000Y-8472200D01*
X9148800Y-8396000D02*
X9301200Y-8396000D01*
X9148800Y-8827800D02*
X9301200Y-8980200D01*
X9301200Y-8827800D02*
X9148800Y-8980200D01*
X9225000Y-8827800D02*
X9225000Y-8980200D01*
X9148800Y-8904000D02*
X9301200Y-8904000D01*
X17123800Y-6169800D02*
X17276200Y-6322200D01*
X17276200Y-6169800D02*
X17123800Y-6322200D01*
X17200000Y-6169800D02*
X17200000Y-6322200D01*
X17123800Y-6246000D02*
X17276200Y-6246000D01*
X17123800Y-6677800D02*
X17276200Y-6830200D01*
X17276200Y-6677800D02*
X17123800Y-6830200D01*
X17200000Y-6677800D02*
X17200000Y-6830200D01*
X17123800Y-6754000D02*
X17276200Y-6754000D01*
D13*
X8902429Y-9741714D02*
X8902429Y-9441714D01*
X8973857Y-9441714D01*
X9016714Y-9456000D01*
X9045286Y-9484572D01*
X9059571Y-9513143D01*
X9073857Y-9570286D01*
X9073857Y-9613143D01*
X9059571Y-9670286D01*
X9045286Y-9698857D01*
X9016714Y-9727429D01*
X8973857Y-9741714D01*
X8902429Y-9741714D01*
X9202429Y-9741714D02*
X9202429Y-9541714D01*
X9202429Y-9598857D02*
X9216714Y-9570286D01*
X9231000Y-9556000D01*
X9259571Y-9541714D01*
X9288143Y-9541714D01*
X9388143Y-9741714D02*
X9388143Y-9541714D01*
X9388143Y-9441714D02*
X9373857Y-9456000D01*
X9388143Y-9470286D01*
X9402429Y-9456000D01*
X9388143Y-9441714D01*
X9388143Y-9470286D01*
X9573857Y-9741714D02*
X9545286Y-9727429D01*
X9531000Y-9698857D01*
X9531000Y-9441714D01*
X9731000Y-9741714D02*
X9702429Y-9727429D01*
X9688143Y-9698857D01*
X9688143Y-9441714D01*
X10073857Y-9741714D02*
X10073857Y-9441714D01*
X10173857Y-9656000D01*
X10273857Y-9441714D01*
X10273857Y-9741714D01*
X10545286Y-9741714D02*
X10545286Y-9584572D01*
X10531000Y-9556000D01*
X10502429Y-9541714D01*
X10445286Y-9541714D01*
X10416714Y-9556000D01*
X10545286Y-9727429D02*
X10516714Y-9741714D01*
X10445286Y-9741714D01*
X10416714Y-9727429D01*
X10402429Y-9698857D01*
X10402429Y-9670286D01*
X10416714Y-9641714D01*
X10445286Y-9627429D01*
X10516714Y-9627429D01*
X10545286Y-9613143D01*
X10688143Y-9541714D02*
X10688143Y-9841714D01*
X10688143Y-9556000D02*
X10716714Y-9541714D01*
X10773857Y-9541714D01*
X10802429Y-9556000D01*
X10816714Y-9570286D01*
X10831000Y-9598857D01*
X10831000Y-9684572D01*
X10816714Y-9713143D01*
X10802429Y-9727429D01*
X10773857Y-9741714D01*
X10716714Y-9741714D01*
X10688143Y-9727429D01*
X10959571Y-9713143D02*
X10973857Y-9727429D01*
X10959571Y-9741714D01*
X10945286Y-9727429D01*
X10959571Y-9713143D01*
X10959571Y-9741714D01*
X10959571Y-9556000D02*
X10973857Y-9570286D01*
X10959571Y-9584572D01*
X10945286Y-9570286D01*
X10959571Y-9556000D01*
X10959571Y-9584572D01*
X8591000Y-10216000D02*
X8631000Y-10256000D01*
X8631000Y-10216000D02*
X8591000Y-10256000D01*
X8959571Y-10071714D02*
X8988143Y-10071714D01*
X9016714Y-10086000D01*
X9031000Y-10100286D01*
X9045286Y-10128857D01*
X9059571Y-10186000D01*
X9059571Y-10257429D01*
X9045286Y-10314572D01*
X9031000Y-10343143D01*
X9016714Y-10357429D01*
X8988143Y-10371714D01*
X8959571Y-10371714D01*
X8931000Y-10357429D01*
X8916714Y-10343143D01*
X8902429Y-10314572D01*
X8888143Y-10257429D01*
X8888143Y-10186000D01*
X8902429Y-10128857D01*
X8916714Y-10100286D01*
X8931000Y-10086000D01*
X8959571Y-10071714D01*
X9188143Y-10343143D02*
X9202429Y-10357429D01*
X9188143Y-10371714D01*
X9173857Y-10357429D01*
X9188143Y-10343143D01*
X9188143Y-10371714D01*
X9459571Y-10171714D02*
X9459571Y-10371714D01*
X9388143Y-10057429D02*
X9316714Y-10271714D01*
X9502428Y-10271714D01*
X9673857Y-10071714D02*
X9702429Y-10071714D01*
X9731000Y-10086000D01*
X9745286Y-10100286D01*
X9759571Y-10128857D01*
X9773857Y-10186000D01*
X9773857Y-10257429D01*
X9759571Y-10314572D01*
X9745286Y-10343143D01*
X9731000Y-10357429D01*
X9702429Y-10371714D01*
X9673857Y-10371714D01*
X9645286Y-10357429D01*
X9631000Y-10343143D01*
X9616714Y-10314572D01*
X9602429Y-10257429D01*
X9602429Y-10186000D01*
X9616714Y-10128857D01*
X9631000Y-10100286D01*
X9645286Y-10086000D01*
X9673857Y-10071714D01*
X9902429Y-10371714D02*
X9902429Y-10171714D01*
X9902429Y-10200286D02*
X9916714Y-10186000D01*
X9945286Y-10171714D01*
X9988143Y-10171714D01*
X10016714Y-10186000D01*
X10031000Y-10214572D01*
X10031000Y-10371714D01*
X10031000Y-10214572D02*
X10045286Y-10186000D01*
X10073857Y-10171714D01*
X10116714Y-10171714D01*
X10145286Y-10186000D01*
X10159571Y-10214572D01*
X10159571Y-10371714D01*
X10302429Y-10371714D02*
X10302429Y-10171714D01*
X10302429Y-10200286D02*
X10316714Y-10186000D01*
X10345286Y-10171714D01*
X10388143Y-10171714D01*
X10416714Y-10186000D01*
X10431000Y-10214572D01*
X10431000Y-10371714D01*
X10431000Y-10214572D02*
X10445286Y-10186000D01*
X10473857Y-10171714D01*
X10516714Y-10171714D01*
X10545286Y-10186000D01*
X10559571Y-10214572D01*
X10559571Y-10371714D01*
X11145286Y-10057429D02*
X10888143Y-10443143D01*
X11531000Y-10071714D02*
X11559571Y-10071714D01*
X11588143Y-10086000D01*
X11602428Y-10100286D01*
X11616714Y-10128857D01*
X11631000Y-10186000D01*
X11631000Y-10257429D01*
X11616714Y-10314572D01*
X11602428Y-10343143D01*
X11588143Y-10357429D01*
X11559571Y-10371714D01*
X11531000Y-10371714D01*
X11502428Y-10357429D01*
X11488143Y-10343143D01*
X11473857Y-10314572D01*
X11459571Y-10257429D01*
X11459571Y-10186000D01*
X11473857Y-10128857D01*
X11488143Y-10100286D01*
X11502428Y-10086000D01*
X11531000Y-10071714D01*
X11759571Y-10343143D02*
X11773857Y-10357429D01*
X11759571Y-10371714D01*
X11745286Y-10357429D01*
X11759571Y-10343143D01*
X11759571Y-10371714D01*
X11959571Y-10071714D02*
X11988143Y-10071714D01*
X12016714Y-10086000D01*
X12031000Y-10100286D01*
X12045285Y-10128857D01*
X12059571Y-10186000D01*
X12059571Y-10257429D01*
X12045285Y-10314572D01*
X12031000Y-10343143D01*
X12016714Y-10357429D01*
X11988143Y-10371714D01*
X11959571Y-10371714D01*
X11931000Y-10357429D01*
X11916714Y-10343143D01*
X11902428Y-10314572D01*
X11888143Y-10257429D01*
X11888143Y-10186000D01*
X11902428Y-10128857D01*
X11916714Y-10100286D01*
X11931000Y-10086000D01*
X11959571Y-10071714D01*
X12345285Y-10371714D02*
X12173857Y-10371714D01*
X12259571Y-10371714D02*
X12259571Y-10071714D01*
X12231000Y-10114572D01*
X12202428Y-10143143D01*
X12173857Y-10157429D01*
X12602428Y-10071714D02*
X12545285Y-10071714D01*
X12516714Y-10086000D01*
X12502428Y-10100286D01*
X12473857Y-10143143D01*
X12459571Y-10200286D01*
X12459571Y-10314572D01*
X12473857Y-10343143D01*
X12488143Y-10357429D01*
X12516714Y-10371714D01*
X12573857Y-10371714D01*
X12602428Y-10357429D01*
X12616714Y-10343143D01*
X12631000Y-10314572D01*
X12631000Y-10243143D01*
X12616714Y-10214572D01*
X12602428Y-10200286D01*
X12573857Y-10186000D01*
X12516714Y-10186000D01*
X12488143Y-10200286D01*
X12473857Y-10214572D01*
X12459571Y-10243143D01*
X12745286Y-10071714D02*
X12745286Y-10128857D01*
X12859571Y-10071714D02*
X12859571Y-10128857D01*
X13302428Y-10486000D02*
X13288143Y-10471714D01*
X13259571Y-10428857D01*
X13245285Y-10400286D01*
X13231000Y-10357429D01*
X13216714Y-10286000D01*
X13216714Y-10228857D01*
X13231000Y-10157429D01*
X13245285Y-10114572D01*
X13259571Y-10086000D01*
X13288143Y-10043143D01*
X13302428Y-10028857D01*
X13573857Y-10371714D02*
X13402428Y-10371714D01*
X13488143Y-10371714D02*
X13488143Y-10071714D01*
X13459571Y-10114572D01*
X13431000Y-10143143D01*
X13402428Y-10157429D01*
X13831000Y-10071714D02*
X13773857Y-10071714D01*
X13745285Y-10086000D01*
X13731000Y-10100286D01*
X13702428Y-10143143D01*
X13688143Y-10200286D01*
X13688143Y-10314572D01*
X13702428Y-10343143D01*
X13716714Y-10357429D01*
X13745285Y-10371714D01*
X13802428Y-10371714D01*
X13831000Y-10357429D01*
X13845285Y-10343143D01*
X13859571Y-10314572D01*
X13859571Y-10243143D01*
X13845285Y-10214572D01*
X13831000Y-10200286D01*
X13802428Y-10186000D01*
X13745285Y-10186000D01*
X13716714Y-10200286D01*
X13702428Y-10214572D01*
X13688143Y-10243143D01*
X14216714Y-10371714D02*
X14216714Y-10071714D01*
X14345285Y-10371714D02*
X14345285Y-10214572D01*
X14331000Y-10186000D01*
X14302428Y-10171714D01*
X14259571Y-10171714D01*
X14231000Y-10186000D01*
X14216714Y-10200286D01*
X14531000Y-10371714D02*
X14502428Y-10357429D01*
X14488143Y-10343143D01*
X14473857Y-10314572D01*
X14473857Y-10228857D01*
X14488143Y-10200286D01*
X14502428Y-10186000D01*
X14531000Y-10171714D01*
X14573857Y-10171714D01*
X14602428Y-10186000D01*
X14616714Y-10200286D01*
X14631000Y-10228857D01*
X14631000Y-10314572D01*
X14616714Y-10343143D01*
X14602428Y-10357429D01*
X14573857Y-10371714D01*
X14531000Y-10371714D01*
X14802428Y-10371714D02*
X14773857Y-10357429D01*
X14759571Y-10328857D01*
X14759571Y-10071714D01*
X15031000Y-10357429D02*
X15002428Y-10371714D01*
X14945286Y-10371714D01*
X14916714Y-10357429D01*
X14902428Y-10328857D01*
X14902428Y-10214572D01*
X14916714Y-10186000D01*
X14945286Y-10171714D01*
X15002428Y-10171714D01*
X15031000Y-10186000D01*
X15045286Y-10214572D01*
X15045286Y-10243143D01*
X14902428Y-10271714D01*
X15159571Y-10357429D02*
X15188143Y-10371714D01*
X15245286Y-10371714D01*
X15273857Y-10357429D01*
X15288143Y-10328857D01*
X15288143Y-10314572D01*
X15273857Y-10286000D01*
X15245286Y-10271714D01*
X15202428Y-10271714D01*
X15173857Y-10257429D01*
X15159571Y-10228857D01*
X15159571Y-10214572D01*
X15173857Y-10186000D01*
X15202428Y-10171714D01*
X15245286Y-10171714D01*
X15273857Y-10186000D01*
X15388143Y-10486000D02*
X15402428Y-10471714D01*
X15431000Y-10428857D01*
X15445286Y-10400286D01*
X15459571Y-10357429D01*
X15473857Y-10286000D01*
X15473857Y-10228857D01*
X15459571Y-10157429D01*
X15445286Y-10114572D01*
X15431000Y-10086000D01*
X15402428Y-10043143D01*
X15388143Y-10028857D01*
X8631000Y-10632000D02*
G75*
G03X8631000Y-10632000I-40640J0D01*
G01*
X8959571Y-10467714D02*
X8988143Y-10467714D01*
X9016714Y-10482000D01*
X9031000Y-10496286D01*
X9045286Y-10524857D01*
X9059571Y-10582000D01*
X9059571Y-10653429D01*
X9045286Y-10710572D01*
X9031000Y-10739143D01*
X9016714Y-10753429D01*
X8988143Y-10767714D01*
X8959571Y-10767714D01*
X8931000Y-10753429D01*
X8916714Y-10739143D01*
X8902429Y-10710572D01*
X8888143Y-10653429D01*
X8888143Y-10582000D01*
X8902429Y-10524857D01*
X8916714Y-10496286D01*
X8931000Y-10482000D01*
X8959571Y-10467714D01*
X9188143Y-10739143D02*
X9202429Y-10753429D01*
X9188143Y-10767714D01*
X9173857Y-10753429D01*
X9188143Y-10739143D01*
X9188143Y-10767714D01*
X9373857Y-10596286D02*
X9345286Y-10582000D01*
X9331000Y-10567714D01*
X9316714Y-10539143D01*
X9316714Y-10524857D01*
X9331000Y-10496286D01*
X9345286Y-10482000D01*
X9373857Y-10467714D01*
X9431000Y-10467714D01*
X9459571Y-10482000D01*
X9473857Y-10496286D01*
X9488143Y-10524857D01*
X9488143Y-10539143D01*
X9473857Y-10567714D01*
X9459571Y-10582000D01*
X9431000Y-10596286D01*
X9373857Y-10596286D01*
X9345286Y-10610572D01*
X9331000Y-10624857D01*
X9316714Y-10653429D01*
X9316714Y-10710572D01*
X9331000Y-10739143D01*
X9345286Y-10753429D01*
X9373857Y-10767714D01*
X9431000Y-10767714D01*
X9459571Y-10753429D01*
X9473857Y-10739143D01*
X9488143Y-10710572D01*
X9488143Y-10653429D01*
X9473857Y-10624857D01*
X9459571Y-10610572D01*
X9431000Y-10596286D01*
X9773857Y-10767714D02*
X9602429Y-10767714D01*
X9688143Y-10767714D02*
X9688143Y-10467714D01*
X9659571Y-10510572D01*
X9631000Y-10539143D01*
X9602429Y-10553429D01*
X9902429Y-10767714D02*
X9902429Y-10567714D01*
X9902429Y-10596286D02*
X9916714Y-10582000D01*
X9945286Y-10567714D01*
X9988143Y-10567714D01*
X10016714Y-10582000D01*
X10031000Y-10610572D01*
X10031000Y-10767714D01*
X10031000Y-10610572D02*
X10045286Y-10582000D01*
X10073857Y-10567714D01*
X10116714Y-10567714D01*
X10145286Y-10582000D01*
X10159571Y-10610572D01*
X10159571Y-10767714D01*
X10302429Y-10767714D02*
X10302429Y-10567714D01*
X10302429Y-10596286D02*
X10316714Y-10582000D01*
X10345286Y-10567714D01*
X10388143Y-10567714D01*
X10416714Y-10582000D01*
X10431000Y-10610572D01*
X10431000Y-10767714D01*
X10431000Y-10610572D02*
X10445286Y-10582000D01*
X10473857Y-10567714D01*
X10516714Y-10567714D01*
X10545286Y-10582000D01*
X10559571Y-10610572D01*
X10559571Y-10767714D01*
X11145286Y-10453429D02*
X10888143Y-10839143D01*
X11531000Y-10467714D02*
X11559571Y-10467714D01*
X11588143Y-10482000D01*
X11602428Y-10496286D01*
X11616714Y-10524857D01*
X11631000Y-10582000D01*
X11631000Y-10653429D01*
X11616714Y-10710572D01*
X11602428Y-10739143D01*
X11588143Y-10753429D01*
X11559571Y-10767714D01*
X11531000Y-10767714D01*
X11502428Y-10753429D01*
X11488143Y-10739143D01*
X11473857Y-10710572D01*
X11459571Y-10653429D01*
X11459571Y-10582000D01*
X11473857Y-10524857D01*
X11488143Y-10496286D01*
X11502428Y-10482000D01*
X11531000Y-10467714D01*
X11759571Y-10739143D02*
X11773857Y-10753429D01*
X11759571Y-10767714D01*
X11745286Y-10753429D01*
X11759571Y-10739143D01*
X11759571Y-10767714D01*
X11959571Y-10467714D02*
X11988143Y-10467714D01*
X12016714Y-10482000D01*
X12031000Y-10496286D01*
X12045285Y-10524857D01*
X12059571Y-10582000D01*
X12059571Y-10653429D01*
X12045285Y-10710572D01*
X12031000Y-10739143D01*
X12016714Y-10753429D01*
X11988143Y-10767714D01*
X11959571Y-10767714D01*
X11931000Y-10753429D01*
X11916714Y-10739143D01*
X11902428Y-10710572D01*
X11888143Y-10653429D01*
X11888143Y-10582000D01*
X11902428Y-10524857D01*
X11916714Y-10496286D01*
X11931000Y-10482000D01*
X11959571Y-10467714D01*
X12159571Y-10467714D02*
X12345285Y-10467714D01*
X12245285Y-10582000D01*
X12288143Y-10582000D01*
X12316714Y-10596286D01*
X12331000Y-10610572D01*
X12345285Y-10639143D01*
X12345285Y-10710572D01*
X12331000Y-10739143D01*
X12316714Y-10753429D01*
X12288143Y-10767714D01*
X12202428Y-10767714D01*
X12173857Y-10753429D01*
X12159571Y-10739143D01*
X12459571Y-10496286D02*
X12473857Y-10482000D01*
X12502428Y-10467714D01*
X12573857Y-10467714D01*
X12602428Y-10482000D01*
X12616714Y-10496286D01*
X12631000Y-10524857D01*
X12631000Y-10553429D01*
X12616714Y-10596286D01*
X12445285Y-10767714D01*
X12631000Y-10767714D01*
X12745286Y-10467714D02*
X12745286Y-10524857D01*
X12859571Y-10467714D02*
X12859571Y-10524857D01*
X13302428Y-10882000D02*
X13288143Y-10867714D01*
X13259571Y-10824857D01*
X13245285Y-10796286D01*
X13231000Y-10753429D01*
X13216714Y-10682000D01*
X13216714Y-10624857D01*
X13231000Y-10553429D01*
X13245285Y-10510572D01*
X13259571Y-10482000D01*
X13288143Y-10439143D01*
X13302428Y-10424857D01*
X13573857Y-10767714D02*
X13402428Y-10767714D01*
X13488143Y-10767714D02*
X13488143Y-10467714D01*
X13459571Y-10510572D01*
X13431000Y-10539143D01*
X13402428Y-10553429D01*
X13688143Y-10496286D02*
X13702428Y-10482000D01*
X13731000Y-10467714D01*
X13802428Y-10467714D01*
X13831000Y-10482000D01*
X13845285Y-10496286D01*
X13859571Y-10524857D01*
X13859571Y-10553429D01*
X13845285Y-10596286D01*
X13673857Y-10767714D01*
X13859571Y-10767714D01*
X14216714Y-10767714D02*
X14216714Y-10467714D01*
X14345285Y-10767714D02*
X14345285Y-10610572D01*
X14331000Y-10582000D01*
X14302428Y-10567714D01*
X14259571Y-10567714D01*
X14231000Y-10582000D01*
X14216714Y-10596286D01*
X14531000Y-10767714D02*
X14502428Y-10753429D01*
X14488143Y-10739143D01*
X14473857Y-10710572D01*
X14473857Y-10624857D01*
X14488143Y-10596286D01*
X14502428Y-10582000D01*
X14531000Y-10567714D01*
X14573857Y-10567714D01*
X14602428Y-10582000D01*
X14616714Y-10596286D01*
X14631000Y-10624857D01*
X14631000Y-10710572D01*
X14616714Y-10739143D01*
X14602428Y-10753429D01*
X14573857Y-10767714D01*
X14531000Y-10767714D01*
X14802428Y-10767714D02*
X14773857Y-10753429D01*
X14759571Y-10724857D01*
X14759571Y-10467714D01*
X15031000Y-10753429D02*
X15002428Y-10767714D01*
X14945286Y-10767714D01*
X14916714Y-10753429D01*
X14902428Y-10724857D01*
X14902428Y-10610572D01*
X14916714Y-10582000D01*
X14945286Y-10567714D01*
X15002428Y-10567714D01*
X15031000Y-10582000D01*
X15045286Y-10610572D01*
X15045286Y-10639143D01*
X14902428Y-10667714D01*
X15159571Y-10753429D02*
X15188143Y-10767714D01*
X15245286Y-10767714D01*
X15273857Y-10753429D01*
X15288143Y-10724857D01*
X15288143Y-10710572D01*
X15273857Y-10682000D01*
X15245286Y-10667714D01*
X15202428Y-10667714D01*
X15173857Y-10653429D01*
X15159571Y-10624857D01*
X15159571Y-10610572D01*
X15173857Y-10582000D01*
X15202428Y-10567714D01*
X15245286Y-10567714D01*
X15273857Y-10582000D01*
X15388143Y-10882000D02*
X15402428Y-10867714D01*
X15431000Y-10824857D01*
X15445286Y-10796286D01*
X15459571Y-10753429D01*
X15473857Y-10682000D01*
X15473857Y-10624857D01*
X15459571Y-10553429D01*
X15445286Y-10510572D01*
X15431000Y-10482000D01*
X15402428Y-10439143D01*
X15388143Y-10424857D01*
X8580962Y-10977962D02*
X8580962Y-11078038D01*
X8530924Y-11028000D02*
X8631000Y-11028000D01*
X9059571Y-11163714D02*
X8888143Y-11163714D01*
X8973857Y-11163714D02*
X8973857Y-10863714D01*
X8945286Y-10906572D01*
X8916714Y-10935143D01*
X8888143Y-10949429D01*
X9188143Y-11135143D02*
X9202429Y-11149429D01*
X9188143Y-11163714D01*
X9173857Y-11149429D01*
X9188143Y-11135143D01*
X9188143Y-11163714D01*
X9388143Y-10863714D02*
X9416714Y-10863714D01*
X9445286Y-10878000D01*
X9459571Y-10892286D01*
X9473857Y-10920857D01*
X9488143Y-10978000D01*
X9488143Y-11049429D01*
X9473857Y-11106572D01*
X9459571Y-11135143D01*
X9445286Y-11149429D01*
X9416714Y-11163714D01*
X9388143Y-11163714D01*
X9359571Y-11149429D01*
X9345286Y-11135143D01*
X9331000Y-11106572D01*
X9316714Y-11049429D01*
X9316714Y-10978000D01*
X9331000Y-10920857D01*
X9345286Y-10892286D01*
X9359571Y-10878000D01*
X9388143Y-10863714D01*
X9673857Y-10863714D02*
X9702429Y-10863714D01*
X9731000Y-10878000D01*
X9745286Y-10892286D01*
X9759571Y-10920857D01*
X9773857Y-10978000D01*
X9773857Y-11049429D01*
X9759571Y-11106572D01*
X9745286Y-11135143D01*
X9731000Y-11149429D01*
X9702429Y-11163714D01*
X9673857Y-11163714D01*
X9645286Y-11149429D01*
X9631000Y-11135143D01*
X9616714Y-11106572D01*
X9602429Y-11049429D01*
X9602429Y-10978000D01*
X9616714Y-10920857D01*
X9631000Y-10892286D01*
X9645286Y-10878000D01*
X9673857Y-10863714D01*
X9902429Y-11163714D02*
X9902429Y-10963714D01*
X9902429Y-10992286D02*
X9916714Y-10978000D01*
X9945286Y-10963714D01*
X9988143Y-10963714D01*
X10016714Y-10978000D01*
X10031000Y-11006572D01*
X10031000Y-11163714D01*
X10031000Y-11006572D02*
X10045286Y-10978000D01*
X10073857Y-10963714D01*
X10116714Y-10963714D01*
X10145286Y-10978000D01*
X10159571Y-11006572D01*
X10159571Y-11163714D01*
X10302429Y-11163714D02*
X10302429Y-10963714D01*
X10302429Y-10992286D02*
X10316714Y-10978000D01*
X10345286Y-10963714D01*
X10388143Y-10963714D01*
X10416714Y-10978000D01*
X10431000Y-11006572D01*
X10431000Y-11163714D01*
X10431000Y-11006572D02*
X10445286Y-10978000D01*
X10473857Y-10963714D01*
X10516714Y-10963714D01*
X10545286Y-10978000D01*
X10559571Y-11006572D01*
X10559571Y-11163714D01*
X11145286Y-10849429D02*
X10888143Y-11235143D01*
X11531000Y-10863714D02*
X11559571Y-10863714D01*
X11588143Y-10878000D01*
X11602428Y-10892286D01*
X11616714Y-10920857D01*
X11631000Y-10978000D01*
X11631000Y-11049429D01*
X11616714Y-11106572D01*
X11602428Y-11135143D01*
X11588143Y-11149429D01*
X11559571Y-11163714D01*
X11531000Y-11163714D01*
X11502428Y-11149429D01*
X11488143Y-11135143D01*
X11473857Y-11106572D01*
X11459571Y-11049429D01*
X11459571Y-10978000D01*
X11473857Y-10920857D01*
X11488143Y-10892286D01*
X11502428Y-10878000D01*
X11531000Y-10863714D01*
X11759571Y-11135143D02*
X11773857Y-11149429D01*
X11759571Y-11163714D01*
X11745286Y-11149429D01*
X11759571Y-11135143D01*
X11759571Y-11163714D01*
X11959571Y-10863714D02*
X11988143Y-10863714D01*
X12016714Y-10878000D01*
X12031000Y-10892286D01*
X12045285Y-10920857D01*
X12059571Y-10978000D01*
X12059571Y-11049429D01*
X12045285Y-11106572D01*
X12031000Y-11135143D01*
X12016714Y-11149429D01*
X11988143Y-11163714D01*
X11959571Y-11163714D01*
X11931000Y-11149429D01*
X11916714Y-11135143D01*
X11902428Y-11106572D01*
X11888143Y-11049429D01*
X11888143Y-10978000D01*
X11902428Y-10920857D01*
X11916714Y-10892286D01*
X11931000Y-10878000D01*
X11959571Y-10863714D01*
X12159571Y-10863714D02*
X12345285Y-10863714D01*
X12245285Y-10978000D01*
X12288143Y-10978000D01*
X12316714Y-10992286D01*
X12331000Y-11006572D01*
X12345285Y-11035143D01*
X12345285Y-11106572D01*
X12331000Y-11135143D01*
X12316714Y-11149429D01*
X12288143Y-11163714D01*
X12202428Y-11163714D01*
X12173857Y-11149429D01*
X12159571Y-11135143D01*
X12488143Y-11163714D02*
X12545285Y-11163714D01*
X12573857Y-11149429D01*
X12588143Y-11135143D01*
X12616714Y-11092286D01*
X12631000Y-11035143D01*
X12631000Y-10920857D01*
X12616714Y-10892286D01*
X12602428Y-10878000D01*
X12573857Y-10863714D01*
X12516714Y-10863714D01*
X12488143Y-10878000D01*
X12473857Y-10892286D01*
X12459571Y-10920857D01*
X12459571Y-10992286D01*
X12473857Y-11020857D01*
X12488143Y-11035143D01*
X12516714Y-11049429D01*
X12573857Y-11049429D01*
X12602428Y-11035143D01*
X12616714Y-11020857D01*
X12631000Y-10992286D01*
X12745286Y-10863714D02*
X12745286Y-10920857D01*
X12859571Y-10863714D02*
X12859571Y-10920857D01*
X13302428Y-11278000D02*
X13288143Y-11263714D01*
X13259571Y-11220857D01*
X13245285Y-11192286D01*
X13231000Y-11149429D01*
X13216714Y-11078000D01*
X13216714Y-11020857D01*
X13231000Y-10949429D01*
X13245285Y-10906572D01*
X13259571Y-10878000D01*
X13288143Y-10835143D01*
X13302428Y-10820857D01*
X13402428Y-10892286D02*
X13416714Y-10878000D01*
X13445285Y-10863714D01*
X13516714Y-10863714D01*
X13545285Y-10878000D01*
X13559571Y-10892286D01*
X13573857Y-10920857D01*
X13573857Y-10949429D01*
X13559571Y-10992286D01*
X13388143Y-11163714D01*
X13573857Y-11163714D01*
X13716714Y-11163714D02*
X13773857Y-11163714D01*
X13802428Y-11149429D01*
X13816714Y-11135143D01*
X13845285Y-11092286D01*
X13859571Y-11035143D01*
X13859571Y-10920857D01*
X13845285Y-10892286D01*
X13831000Y-10878000D01*
X13802428Y-10863714D01*
X13745285Y-10863714D01*
X13716714Y-10878000D01*
X13702428Y-10892286D01*
X13688143Y-10920857D01*
X13688143Y-10992286D01*
X13702428Y-11020857D01*
X13716714Y-11035143D01*
X13745285Y-11049429D01*
X13802428Y-11049429D01*
X13831000Y-11035143D01*
X13845285Y-11020857D01*
X13859571Y-10992286D01*
X14216714Y-11163714D02*
X14216714Y-10863714D01*
X14345285Y-11163714D02*
X14345285Y-11006572D01*
X14331000Y-10978000D01*
X14302428Y-10963714D01*
X14259571Y-10963714D01*
X14231000Y-10978000D01*
X14216714Y-10992286D01*
X14531000Y-11163714D02*
X14502428Y-11149429D01*
X14488143Y-11135143D01*
X14473857Y-11106572D01*
X14473857Y-11020857D01*
X14488143Y-10992286D01*
X14502428Y-10978000D01*
X14531000Y-10963714D01*
X14573857Y-10963714D01*
X14602428Y-10978000D01*
X14616714Y-10992286D01*
X14631000Y-11020857D01*
X14631000Y-11106572D01*
X14616714Y-11135143D01*
X14602428Y-11149429D01*
X14573857Y-11163714D01*
X14531000Y-11163714D01*
X14802428Y-11163714D02*
X14773857Y-11149429D01*
X14759571Y-11120857D01*
X14759571Y-10863714D01*
X15031000Y-11149429D02*
X15002428Y-11163714D01*
X14945286Y-11163714D01*
X14916714Y-11149429D01*
X14902428Y-11120857D01*
X14902428Y-11006572D01*
X14916714Y-10978000D01*
X14945286Y-10963714D01*
X15002428Y-10963714D01*
X15031000Y-10978000D01*
X15045286Y-11006572D01*
X15045286Y-11035143D01*
X14902428Y-11063714D01*
X15159571Y-11149429D02*
X15188143Y-11163714D01*
X15245286Y-11163714D01*
X15273857Y-11149429D01*
X15288143Y-11120857D01*
X15288143Y-11106572D01*
X15273857Y-11078000D01*
X15245286Y-11063714D01*
X15202428Y-11063714D01*
X15173857Y-11049429D01*
X15159571Y-11020857D01*
X15159571Y-11006572D01*
X15173857Y-10978000D01*
X15202428Y-10963714D01*
X15245286Y-10963714D01*
X15273857Y-10978000D01*
X15388143Y-11278000D02*
X15402428Y-11263714D01*
X15431000Y-11220857D01*
X15445286Y-11192286D01*
X15459571Y-11149429D01*
X15473857Y-11078000D01*
X15473857Y-11020857D01*
X15459571Y-10949429D01*
X15445286Y-10906572D01*
X15431000Y-10878000D01*
X15402428Y-10835143D01*
X15388143Y-10820857D01*
X8616121Y-11459921D02*
X8616121Y-11388079D01*
X8544279Y-11388079D01*
X8544279Y-11459921D01*
X8616121Y-11459921D01*
X9059571Y-11559714D02*
X8888143Y-11559714D01*
X8973857Y-11559714D02*
X8973857Y-11259714D01*
X8945286Y-11302571D01*
X8916714Y-11331143D01*
X8888143Y-11345429D01*
X9188143Y-11531143D02*
X9202429Y-11545429D01*
X9188143Y-11559714D01*
X9173857Y-11545429D01*
X9188143Y-11531143D01*
X9188143Y-11559714D01*
X9388143Y-11259714D02*
X9416714Y-11259714D01*
X9445286Y-11274000D01*
X9459571Y-11288286D01*
X9473857Y-11316857D01*
X9488143Y-11374000D01*
X9488143Y-11445429D01*
X9473857Y-11502571D01*
X9459571Y-11531143D01*
X9445286Y-11545429D01*
X9416714Y-11559714D01*
X9388143Y-11559714D01*
X9359571Y-11545429D01*
X9345286Y-11531143D01*
X9331000Y-11502571D01*
X9316714Y-11445429D01*
X9316714Y-11374000D01*
X9331000Y-11316857D01*
X9345286Y-11288286D01*
X9359571Y-11274000D01*
X9388143Y-11259714D01*
X9602429Y-11288286D02*
X9616714Y-11274000D01*
X9645286Y-11259714D01*
X9716714Y-11259714D01*
X9745286Y-11274000D01*
X9759571Y-11288286D01*
X9773857Y-11316857D01*
X9773857Y-11345429D01*
X9759571Y-11388286D01*
X9588143Y-11559714D01*
X9773857Y-11559714D01*
X9902429Y-11559714D02*
X9902429Y-11359714D01*
X9902429Y-11388286D02*
X9916714Y-11374000D01*
X9945286Y-11359714D01*
X9988143Y-11359714D01*
X10016714Y-11374000D01*
X10031000Y-11402571D01*
X10031000Y-11559714D01*
X10031000Y-11402571D02*
X10045286Y-11374000D01*
X10073857Y-11359714D01*
X10116714Y-11359714D01*
X10145286Y-11374000D01*
X10159571Y-11402571D01*
X10159571Y-11559714D01*
X10302429Y-11559714D02*
X10302429Y-11359714D01*
X10302429Y-11388286D02*
X10316714Y-11374000D01*
X10345286Y-11359714D01*
X10388143Y-11359714D01*
X10416714Y-11374000D01*
X10431000Y-11402571D01*
X10431000Y-11559714D01*
X10431000Y-11402571D02*
X10445286Y-11374000D01*
X10473857Y-11359714D01*
X10516714Y-11359714D01*
X10545286Y-11374000D01*
X10559571Y-11402571D01*
X10559571Y-11559714D01*
X11145286Y-11245429D02*
X10888143Y-11631143D01*
X11531000Y-11259714D02*
X11559571Y-11259714D01*
X11588143Y-11274000D01*
X11602428Y-11288286D01*
X11616714Y-11316857D01*
X11631000Y-11374000D01*
X11631000Y-11445429D01*
X11616714Y-11502571D01*
X11602428Y-11531143D01*
X11588143Y-11545429D01*
X11559571Y-11559714D01*
X11531000Y-11559714D01*
X11502428Y-11545429D01*
X11488143Y-11531143D01*
X11473857Y-11502571D01*
X11459571Y-11445429D01*
X11459571Y-11374000D01*
X11473857Y-11316857D01*
X11488143Y-11288286D01*
X11502428Y-11274000D01*
X11531000Y-11259714D01*
X11759571Y-11531143D02*
X11773857Y-11545429D01*
X11759571Y-11559714D01*
X11745286Y-11545429D01*
X11759571Y-11531143D01*
X11759571Y-11559714D01*
X11959571Y-11259714D02*
X11988143Y-11259714D01*
X12016714Y-11274000D01*
X12031000Y-11288286D01*
X12045285Y-11316857D01*
X12059571Y-11374000D01*
X12059571Y-11445429D01*
X12045285Y-11502571D01*
X12031000Y-11531143D01*
X12016714Y-11545429D01*
X11988143Y-11559714D01*
X11959571Y-11559714D01*
X11931000Y-11545429D01*
X11916714Y-11531143D01*
X11902428Y-11502571D01*
X11888143Y-11445429D01*
X11888143Y-11374000D01*
X11902428Y-11316857D01*
X11916714Y-11288286D01*
X11931000Y-11274000D01*
X11959571Y-11259714D01*
X12316714Y-11359714D02*
X12316714Y-11559714D01*
X12245285Y-11245429D02*
X12173857Y-11459714D01*
X12359571Y-11459714D01*
X12531000Y-11259714D02*
X12559571Y-11259714D01*
X12588143Y-11274000D01*
X12602428Y-11288286D01*
X12616714Y-11316857D01*
X12631000Y-11374000D01*
X12631000Y-11445429D01*
X12616714Y-11502571D01*
X12602428Y-11531143D01*
X12588143Y-11545429D01*
X12559571Y-11559714D01*
X12531000Y-11559714D01*
X12502428Y-11545429D01*
X12488143Y-11531143D01*
X12473857Y-11502571D01*
X12459571Y-11445429D01*
X12459571Y-11374000D01*
X12473857Y-11316857D01*
X12488143Y-11288286D01*
X12502428Y-11274000D01*
X12531000Y-11259714D01*
X12745286Y-11259714D02*
X12745286Y-11316857D01*
X12859571Y-11259714D02*
X12859571Y-11316857D01*
X13302428Y-11674000D02*
X13288143Y-11659714D01*
X13259571Y-11616857D01*
X13245285Y-11588286D01*
X13231000Y-11545429D01*
X13216714Y-11474000D01*
X13216714Y-11416857D01*
X13231000Y-11345429D01*
X13245285Y-11302571D01*
X13259571Y-11274000D01*
X13288143Y-11231143D01*
X13302428Y-11216857D01*
X13559571Y-11259714D02*
X13416714Y-11259714D01*
X13402428Y-11402571D01*
X13416714Y-11388286D01*
X13445285Y-11374000D01*
X13516714Y-11374000D01*
X13545285Y-11388286D01*
X13559571Y-11402571D01*
X13573857Y-11431143D01*
X13573857Y-11502571D01*
X13559571Y-11531143D01*
X13545285Y-11545429D01*
X13516714Y-11559714D01*
X13445285Y-11559714D01*
X13416714Y-11545429D01*
X13402428Y-11531143D01*
X13931000Y-11559714D02*
X13931000Y-11259714D01*
X14059571Y-11559714D02*
X14059571Y-11402571D01*
X14045285Y-11374000D01*
X14016714Y-11359714D01*
X13973857Y-11359714D01*
X13945285Y-11374000D01*
X13931000Y-11388286D01*
X14245285Y-11559714D02*
X14216714Y-11545429D01*
X14202428Y-11531143D01*
X14188143Y-11502571D01*
X14188143Y-11416857D01*
X14202428Y-11388286D01*
X14216714Y-11374000D01*
X14245285Y-11359714D01*
X14288143Y-11359714D01*
X14316714Y-11374000D01*
X14331000Y-11388286D01*
X14345285Y-11416857D01*
X14345285Y-11502571D01*
X14331000Y-11531143D01*
X14316714Y-11545429D01*
X14288143Y-11559714D01*
X14245285Y-11559714D01*
X14516714Y-11559714D02*
X14488143Y-11545429D01*
X14473857Y-11516857D01*
X14473857Y-11259714D01*
X14745286Y-11545429D02*
X14716714Y-11559714D01*
X14659571Y-11559714D01*
X14631000Y-11545429D01*
X14616714Y-11516857D01*
X14616714Y-11402571D01*
X14631000Y-11374000D01*
X14659571Y-11359714D01*
X14716714Y-11359714D01*
X14745286Y-11374000D01*
X14759571Y-11402571D01*
X14759571Y-11431143D01*
X14616714Y-11459714D01*
X14873857Y-11545429D02*
X14902428Y-11559714D01*
X14959571Y-11559714D01*
X14988143Y-11545429D01*
X15002428Y-11516857D01*
X15002428Y-11502571D01*
X14988143Y-11474000D01*
X14959571Y-11459714D01*
X14916714Y-11459714D01*
X14888143Y-11445429D01*
X14873857Y-11416857D01*
X14873857Y-11402571D01*
X14888143Y-11374000D01*
X14916714Y-11359714D01*
X14959571Y-11359714D01*
X14988143Y-11374000D01*
X15102428Y-11674000D02*
X15116714Y-11659714D01*
X15145286Y-11616857D01*
X15159571Y-11588286D01*
X15173857Y-11545429D01*
X15188143Y-11474000D01*
X15188143Y-11416857D01*
X15173857Y-11345429D01*
X15159571Y-11302571D01*
X15145286Y-11274000D01*
X15116714Y-11231143D01*
X15102428Y-11216857D01*
X8576000Y-11875000D02*
X8631000Y-11820000D01*
X8576000Y-11765000D01*
X8521000Y-11820000D01*
X8576000Y-11875000D01*
X9059571Y-11955714D02*
X8888143Y-11955714D01*
X8973857Y-11955714D02*
X8973857Y-11655714D01*
X8945286Y-11698571D01*
X8916714Y-11727143D01*
X8888143Y-11741429D01*
X9188143Y-11927143D02*
X9202429Y-11941429D01*
X9188143Y-11955714D01*
X9173857Y-11941429D01*
X9188143Y-11927143D01*
X9188143Y-11955714D01*
X9488143Y-11955714D02*
X9316714Y-11955714D01*
X9402428Y-11955714D02*
X9402428Y-11655714D01*
X9373857Y-11698571D01*
X9345286Y-11727143D01*
X9316714Y-11741429D01*
X9673857Y-11655714D02*
X9702429Y-11655714D01*
X9731000Y-11670000D01*
X9745286Y-11684286D01*
X9759571Y-11712857D01*
X9773857Y-11770000D01*
X9773857Y-11841429D01*
X9759571Y-11898571D01*
X9745286Y-11927143D01*
X9731000Y-11941429D01*
X9702429Y-11955714D01*
X9673857Y-11955714D01*
X9645286Y-11941429D01*
X9631000Y-11927143D01*
X9616714Y-11898571D01*
X9602429Y-11841429D01*
X9602429Y-11770000D01*
X9616714Y-11712857D01*
X9631000Y-11684286D01*
X9645286Y-11670000D01*
X9673857Y-11655714D01*
X9902429Y-11955714D02*
X9902429Y-11755714D01*
X9902429Y-11784286D02*
X9916714Y-11770000D01*
X9945286Y-11755714D01*
X9988143Y-11755714D01*
X10016714Y-11770000D01*
X10031000Y-11798571D01*
X10031000Y-11955714D01*
X10031000Y-11798571D02*
X10045286Y-11770000D01*
X10073857Y-11755714D01*
X10116714Y-11755714D01*
X10145286Y-11770000D01*
X10159571Y-11798571D01*
X10159571Y-11955714D01*
X10302429Y-11955714D02*
X10302429Y-11755714D01*
X10302429Y-11784286D02*
X10316714Y-11770000D01*
X10345286Y-11755714D01*
X10388143Y-11755714D01*
X10416714Y-11770000D01*
X10431000Y-11798571D01*
X10431000Y-11955714D01*
X10431000Y-11798571D02*
X10445286Y-11770000D01*
X10473857Y-11755714D01*
X10516714Y-11755714D01*
X10545286Y-11770000D01*
X10559571Y-11798571D01*
X10559571Y-11955714D01*
X11145286Y-11641429D02*
X10888143Y-12027143D01*
X11531000Y-11655714D02*
X11559571Y-11655714D01*
X11588143Y-11670000D01*
X11602428Y-11684286D01*
X11616714Y-11712857D01*
X11631000Y-11770000D01*
X11631000Y-11841429D01*
X11616714Y-11898571D01*
X11602428Y-11927143D01*
X11588143Y-11941429D01*
X11559571Y-11955714D01*
X11531000Y-11955714D01*
X11502428Y-11941429D01*
X11488143Y-11927143D01*
X11473857Y-11898571D01*
X11459571Y-11841429D01*
X11459571Y-11770000D01*
X11473857Y-11712857D01*
X11488143Y-11684286D01*
X11502428Y-11670000D01*
X11531000Y-11655714D01*
X11759571Y-11927143D02*
X11773857Y-11941429D01*
X11759571Y-11955714D01*
X11745286Y-11941429D01*
X11759571Y-11927143D01*
X11759571Y-11955714D01*
X11959571Y-11655714D02*
X11988143Y-11655714D01*
X12016714Y-11670000D01*
X12031000Y-11684286D01*
X12045285Y-11712857D01*
X12059571Y-11770000D01*
X12059571Y-11841429D01*
X12045285Y-11898571D01*
X12031000Y-11927143D01*
X12016714Y-11941429D01*
X11988143Y-11955714D01*
X11959571Y-11955714D01*
X11931000Y-11941429D01*
X11916714Y-11927143D01*
X11902428Y-11898571D01*
X11888143Y-11841429D01*
X11888143Y-11770000D01*
X11902428Y-11712857D01*
X11916714Y-11684286D01*
X11931000Y-11670000D01*
X11959571Y-11655714D01*
X12316714Y-11755714D02*
X12316714Y-11955714D01*
X12245285Y-11641429D02*
X12173857Y-11855714D01*
X12359571Y-11855714D01*
X12445285Y-11655714D02*
X12631000Y-11655714D01*
X12531000Y-11770000D01*
X12573857Y-11770000D01*
X12602428Y-11784286D01*
X12616714Y-11798571D01*
X12631000Y-11827143D01*
X12631000Y-11898571D01*
X12616714Y-11927143D01*
X12602428Y-11941429D01*
X12573857Y-11955714D01*
X12488143Y-11955714D01*
X12459571Y-11941429D01*
X12445285Y-11927143D01*
X12745286Y-11655714D02*
X12745286Y-11712857D01*
X12859571Y-11655714D02*
X12859571Y-11712857D01*
X13302428Y-12070000D02*
X13288143Y-12055714D01*
X13259571Y-12012857D01*
X13245285Y-11984286D01*
X13231000Y-11941429D01*
X13216714Y-11870000D01*
X13216714Y-11812857D01*
X13231000Y-11741429D01*
X13245285Y-11698571D01*
X13259571Y-11670000D01*
X13288143Y-11627143D01*
X13302428Y-11612857D01*
X13402428Y-11684286D02*
X13416714Y-11670000D01*
X13445285Y-11655714D01*
X13516714Y-11655714D01*
X13545285Y-11670000D01*
X13559571Y-11684286D01*
X13573857Y-11712857D01*
X13573857Y-11741429D01*
X13559571Y-11784286D01*
X13388143Y-11955714D01*
X13573857Y-11955714D01*
X13931000Y-11955714D02*
X13931000Y-11655714D01*
X14059571Y-11955714D02*
X14059571Y-11798571D01*
X14045285Y-11770000D01*
X14016714Y-11755714D01*
X13973857Y-11755714D01*
X13945285Y-11770000D01*
X13931000Y-11784286D01*
X14245285Y-11955714D02*
X14216714Y-11941429D01*
X14202428Y-11927143D01*
X14188143Y-11898571D01*
X14188143Y-11812857D01*
X14202428Y-11784286D01*
X14216714Y-11770000D01*
X14245285Y-11755714D01*
X14288143Y-11755714D01*
X14316714Y-11770000D01*
X14331000Y-11784286D01*
X14345285Y-11812857D01*
X14345285Y-11898571D01*
X14331000Y-11927143D01*
X14316714Y-11941429D01*
X14288143Y-11955714D01*
X14245285Y-11955714D01*
X14516714Y-11955714D02*
X14488143Y-11941429D01*
X14473857Y-11912857D01*
X14473857Y-11655714D01*
X14745286Y-11941429D02*
X14716714Y-11955714D01*
X14659571Y-11955714D01*
X14631000Y-11941429D01*
X14616714Y-11912857D01*
X14616714Y-11798571D01*
X14631000Y-11770000D01*
X14659571Y-11755714D01*
X14716714Y-11755714D01*
X14745286Y-11770000D01*
X14759571Y-11798571D01*
X14759571Y-11827143D01*
X14616714Y-11855714D01*
X14873857Y-11941429D02*
X14902428Y-11955714D01*
X14959571Y-11955714D01*
X14988143Y-11941429D01*
X15002428Y-11912857D01*
X15002428Y-11898571D01*
X14988143Y-11870000D01*
X14959571Y-11855714D01*
X14916714Y-11855714D01*
X14888143Y-11841429D01*
X14873857Y-11812857D01*
X14873857Y-11798571D01*
X14888143Y-11770000D01*
X14916714Y-11755714D01*
X14959571Y-11755714D01*
X14988143Y-11770000D01*
X15102428Y-12070000D02*
X15116714Y-12055714D01*
X15145286Y-12012857D01*
X15159571Y-11984286D01*
X15173857Y-11941429D01*
X15188143Y-11870000D01*
X15188143Y-11812857D01*
X15173857Y-11741429D01*
X15159571Y-11698571D01*
X15145286Y-11670000D01*
X15116714Y-11627143D01*
X15102428Y-11612857D01*
X8480886Y-12140943D02*
X8631000Y-12291057D01*
X8631000Y-12140943D02*
X8480886Y-12291057D01*
X8631000Y-12216000D02*
G75*
G03X8631000Y-12216000I-75057J0D01*
G01*
X9059571Y-12351714D02*
X8888143Y-12351714D01*
X8973857Y-12351714D02*
X8973857Y-12051714D01*
X8945286Y-12094571D01*
X8916714Y-12123143D01*
X8888143Y-12137429D01*
X9188143Y-12323143D02*
X9202429Y-12337429D01*
X9188143Y-12351714D01*
X9173857Y-12337429D01*
X9188143Y-12323143D01*
X9188143Y-12351714D01*
X9473857Y-12051714D02*
X9331000Y-12051714D01*
X9316714Y-12194571D01*
X9331000Y-12180286D01*
X9359571Y-12166000D01*
X9431000Y-12166000D01*
X9459571Y-12180286D01*
X9473857Y-12194571D01*
X9488143Y-12223143D01*
X9488143Y-12294571D01*
X9473857Y-12323143D01*
X9459571Y-12337429D01*
X9431000Y-12351714D01*
X9359571Y-12351714D01*
X9331000Y-12337429D01*
X9316714Y-12323143D01*
X9673857Y-12051714D02*
X9702429Y-12051714D01*
X9731000Y-12066000D01*
X9745286Y-12080286D01*
X9759571Y-12108857D01*
X9773857Y-12166000D01*
X9773857Y-12237429D01*
X9759571Y-12294571D01*
X9745286Y-12323143D01*
X9731000Y-12337429D01*
X9702429Y-12351714D01*
X9673857Y-12351714D01*
X9645286Y-12337429D01*
X9631000Y-12323143D01*
X9616714Y-12294571D01*
X9602429Y-12237429D01*
X9602429Y-12166000D01*
X9616714Y-12108857D01*
X9631000Y-12080286D01*
X9645286Y-12066000D01*
X9673857Y-12051714D01*
X9902429Y-12351714D02*
X9902429Y-12151714D01*
X9902429Y-12180286D02*
X9916714Y-12166000D01*
X9945286Y-12151714D01*
X9988143Y-12151714D01*
X10016714Y-12166000D01*
X10031000Y-12194571D01*
X10031000Y-12351714D01*
X10031000Y-12194571D02*
X10045286Y-12166000D01*
X10073857Y-12151714D01*
X10116714Y-12151714D01*
X10145286Y-12166000D01*
X10159571Y-12194571D01*
X10159571Y-12351714D01*
X10302429Y-12351714D02*
X10302429Y-12151714D01*
X10302429Y-12180286D02*
X10316714Y-12166000D01*
X10345286Y-12151714D01*
X10388143Y-12151714D01*
X10416714Y-12166000D01*
X10431000Y-12194571D01*
X10431000Y-12351714D01*
X10431000Y-12194571D02*
X10445286Y-12166000D01*
X10473857Y-12151714D01*
X10516714Y-12151714D01*
X10545286Y-12166000D01*
X10559571Y-12194571D01*
X10559571Y-12351714D01*
X11145286Y-12037429D02*
X10888143Y-12423143D01*
X11531000Y-12051714D02*
X11559571Y-12051714D01*
X11588143Y-12066000D01*
X11602428Y-12080286D01*
X11616714Y-12108857D01*
X11631000Y-12166000D01*
X11631000Y-12237429D01*
X11616714Y-12294571D01*
X11602428Y-12323143D01*
X11588143Y-12337429D01*
X11559571Y-12351714D01*
X11531000Y-12351714D01*
X11502428Y-12337429D01*
X11488143Y-12323143D01*
X11473857Y-12294571D01*
X11459571Y-12237429D01*
X11459571Y-12166000D01*
X11473857Y-12108857D01*
X11488143Y-12080286D01*
X11502428Y-12066000D01*
X11531000Y-12051714D01*
X11759571Y-12323143D02*
X11773857Y-12337429D01*
X11759571Y-12351714D01*
X11745286Y-12337429D01*
X11759571Y-12323143D01*
X11759571Y-12351714D01*
X11959571Y-12051714D02*
X11988143Y-12051714D01*
X12016714Y-12066000D01*
X12031000Y-12080286D01*
X12045285Y-12108857D01*
X12059571Y-12166000D01*
X12059571Y-12237429D01*
X12045285Y-12294571D01*
X12031000Y-12323143D01*
X12016714Y-12337429D01*
X11988143Y-12351714D01*
X11959571Y-12351714D01*
X11931000Y-12337429D01*
X11916714Y-12323143D01*
X11902428Y-12294571D01*
X11888143Y-12237429D01*
X11888143Y-12166000D01*
X11902428Y-12108857D01*
X11916714Y-12080286D01*
X11931000Y-12066000D01*
X11959571Y-12051714D01*
X12331000Y-12051714D02*
X12188143Y-12051714D01*
X12173857Y-12194571D01*
X12188143Y-12180286D01*
X12216714Y-12166000D01*
X12288143Y-12166000D01*
X12316714Y-12180286D01*
X12331000Y-12194571D01*
X12345285Y-12223143D01*
X12345285Y-12294571D01*
X12331000Y-12323143D01*
X12316714Y-12337429D01*
X12288143Y-12351714D01*
X12216714Y-12351714D01*
X12188143Y-12337429D01*
X12173857Y-12323143D01*
X12488143Y-12351714D02*
X12545285Y-12351714D01*
X12573857Y-12337429D01*
X12588143Y-12323143D01*
X12616714Y-12280286D01*
X12631000Y-12223143D01*
X12631000Y-12108857D01*
X12616714Y-12080286D01*
X12602428Y-12066000D01*
X12573857Y-12051714D01*
X12516714Y-12051714D01*
X12488143Y-12066000D01*
X12473857Y-12080286D01*
X12459571Y-12108857D01*
X12459571Y-12180286D01*
X12473857Y-12208857D01*
X12488143Y-12223143D01*
X12516714Y-12237429D01*
X12573857Y-12237429D01*
X12602428Y-12223143D01*
X12616714Y-12208857D01*
X12631000Y-12180286D01*
X12745286Y-12051714D02*
X12745286Y-12108857D01*
X12859571Y-12051714D02*
X12859571Y-12108857D01*
X13302428Y-12466000D02*
X13288143Y-12451714D01*
X13259571Y-12408857D01*
X13245285Y-12380286D01*
X13231000Y-12337429D01*
X13216714Y-12266000D01*
X13216714Y-12208857D01*
X13231000Y-12137429D01*
X13245285Y-12094571D01*
X13259571Y-12066000D01*
X13288143Y-12023143D01*
X13302428Y-12008857D01*
X13402428Y-12080286D02*
X13416714Y-12066000D01*
X13445285Y-12051714D01*
X13516714Y-12051714D01*
X13545285Y-12066000D01*
X13559571Y-12080286D01*
X13573857Y-12108857D01*
X13573857Y-12137429D01*
X13559571Y-12180286D01*
X13388143Y-12351714D01*
X13573857Y-12351714D01*
X13931000Y-12351714D02*
X13931000Y-12051714D01*
X14059571Y-12351714D02*
X14059571Y-12194571D01*
X14045285Y-12166000D01*
X14016714Y-12151714D01*
X13973857Y-12151714D01*
X13945285Y-12166000D01*
X13931000Y-12180286D01*
X14245285Y-12351714D02*
X14216714Y-12337429D01*
X14202428Y-12323143D01*
X14188143Y-12294571D01*
X14188143Y-12208857D01*
X14202428Y-12180286D01*
X14216714Y-12166000D01*
X14245285Y-12151714D01*
X14288143Y-12151714D01*
X14316714Y-12166000D01*
X14331000Y-12180286D01*
X14345285Y-12208857D01*
X14345285Y-12294571D01*
X14331000Y-12323143D01*
X14316714Y-12337429D01*
X14288143Y-12351714D01*
X14245285Y-12351714D01*
X14516714Y-12351714D02*
X14488143Y-12337429D01*
X14473857Y-12308857D01*
X14473857Y-12051714D01*
X14745286Y-12337429D02*
X14716714Y-12351714D01*
X14659571Y-12351714D01*
X14631000Y-12337429D01*
X14616714Y-12308857D01*
X14616714Y-12194571D01*
X14631000Y-12166000D01*
X14659571Y-12151714D01*
X14716714Y-12151714D01*
X14745286Y-12166000D01*
X14759571Y-12194571D01*
X14759571Y-12223143D01*
X14616714Y-12251714D01*
X14873857Y-12337429D02*
X14902428Y-12351714D01*
X14959571Y-12351714D01*
X14988143Y-12337429D01*
X15002428Y-12308857D01*
X15002428Y-12294571D01*
X14988143Y-12266000D01*
X14959571Y-12251714D01*
X14916714Y-12251714D01*
X14888143Y-12237429D01*
X14873857Y-12208857D01*
X14873857Y-12194571D01*
X14888143Y-12166000D01*
X14916714Y-12151714D01*
X14959571Y-12151714D01*
X14988143Y-12166000D01*
X15102428Y-12466000D02*
X15116714Y-12451714D01*
X15145286Y-12408857D01*
X15159571Y-12380286D01*
X15173857Y-12337429D01*
X15188143Y-12266000D01*
X15188143Y-12208857D01*
X15173857Y-12137429D01*
X15159571Y-12094571D01*
X15145286Y-12066000D01*
X15116714Y-12023143D01*
X15102428Y-12008857D01*
X8478600Y-12535800D02*
X8631000Y-12688200D01*
X8631000Y-12535800D02*
X8478600Y-12688200D01*
X8554800Y-12535800D02*
X8554800Y-12688200D01*
X8478600Y-12612000D02*
X8631000Y-12612000D01*
X9059571Y-12747714D02*
X8888143Y-12747714D01*
X8973857Y-12747714D02*
X8973857Y-12447714D01*
X8945286Y-12490571D01*
X8916714Y-12519143D01*
X8888143Y-12533429D01*
X9188143Y-12719143D02*
X9202429Y-12733429D01*
X9188143Y-12747714D01*
X9173857Y-12733429D01*
X9188143Y-12719143D01*
X9188143Y-12747714D01*
X9473857Y-12447714D02*
X9331000Y-12447714D01*
X9316714Y-12590571D01*
X9331000Y-12576286D01*
X9359571Y-12562000D01*
X9431000Y-12562000D01*
X9459571Y-12576286D01*
X9473857Y-12590571D01*
X9488143Y-12619143D01*
X9488143Y-12690571D01*
X9473857Y-12719143D01*
X9459571Y-12733429D01*
X9431000Y-12747714D01*
X9359571Y-12747714D01*
X9331000Y-12733429D01*
X9316714Y-12719143D01*
X9602429Y-12476286D02*
X9616714Y-12462000D01*
X9645286Y-12447714D01*
X9716714Y-12447714D01*
X9745286Y-12462000D01*
X9759571Y-12476286D01*
X9773857Y-12504857D01*
X9773857Y-12533429D01*
X9759571Y-12576286D01*
X9588143Y-12747714D01*
X9773857Y-12747714D01*
X9902429Y-12747714D02*
X9902429Y-12547714D01*
X9902429Y-12576286D02*
X9916714Y-12562000D01*
X9945286Y-12547714D01*
X9988143Y-12547714D01*
X10016714Y-12562000D01*
X10031000Y-12590571D01*
X10031000Y-12747714D01*
X10031000Y-12590571D02*
X10045286Y-12562000D01*
X10073857Y-12547714D01*
X10116714Y-12547714D01*
X10145286Y-12562000D01*
X10159571Y-12590571D01*
X10159571Y-12747714D01*
X10302429Y-12747714D02*
X10302429Y-12547714D01*
X10302429Y-12576286D02*
X10316714Y-12562000D01*
X10345286Y-12547714D01*
X10388143Y-12547714D01*
X10416714Y-12562000D01*
X10431000Y-12590571D01*
X10431000Y-12747714D01*
X10431000Y-12590571D02*
X10445286Y-12562000D01*
X10473857Y-12547714D01*
X10516714Y-12547714D01*
X10545286Y-12562000D01*
X10559571Y-12590571D01*
X10559571Y-12747714D01*
X11145286Y-12433429D02*
X10888143Y-12819143D01*
X11531000Y-12447714D02*
X11559571Y-12447714D01*
X11588143Y-12462000D01*
X11602428Y-12476286D01*
X11616714Y-12504857D01*
X11631000Y-12562000D01*
X11631000Y-12633429D01*
X11616714Y-12690571D01*
X11602428Y-12719143D01*
X11588143Y-12733429D01*
X11559571Y-12747714D01*
X11531000Y-12747714D01*
X11502428Y-12733429D01*
X11488143Y-12719143D01*
X11473857Y-12690571D01*
X11459571Y-12633429D01*
X11459571Y-12562000D01*
X11473857Y-12504857D01*
X11488143Y-12476286D01*
X11502428Y-12462000D01*
X11531000Y-12447714D01*
X11759571Y-12719143D02*
X11773857Y-12733429D01*
X11759571Y-12747714D01*
X11745286Y-12733429D01*
X11759571Y-12719143D01*
X11759571Y-12747714D01*
X11959571Y-12447714D02*
X11988143Y-12447714D01*
X12016714Y-12462000D01*
X12031000Y-12476286D01*
X12045285Y-12504857D01*
X12059571Y-12562000D01*
X12059571Y-12633429D01*
X12045285Y-12690571D01*
X12031000Y-12719143D01*
X12016714Y-12733429D01*
X11988143Y-12747714D01*
X11959571Y-12747714D01*
X11931000Y-12733429D01*
X11916714Y-12719143D01*
X11902428Y-12690571D01*
X11888143Y-12633429D01*
X11888143Y-12562000D01*
X11902428Y-12504857D01*
X11916714Y-12476286D01*
X11931000Y-12462000D01*
X11959571Y-12447714D01*
X12316714Y-12447714D02*
X12259571Y-12447714D01*
X12231000Y-12462000D01*
X12216714Y-12476286D01*
X12188143Y-12519143D01*
X12173857Y-12576286D01*
X12173857Y-12690571D01*
X12188143Y-12719143D01*
X12202428Y-12733429D01*
X12231000Y-12747714D01*
X12288143Y-12747714D01*
X12316714Y-12733429D01*
X12331000Y-12719143D01*
X12345285Y-12690571D01*
X12345285Y-12619143D01*
X12331000Y-12590571D01*
X12316714Y-12576286D01*
X12288143Y-12562000D01*
X12231000Y-12562000D01*
X12202428Y-12576286D01*
X12188143Y-12590571D01*
X12173857Y-12619143D01*
X12531000Y-12447714D02*
X12559571Y-12447714D01*
X12588143Y-12462000D01*
X12602428Y-12476286D01*
X12616714Y-12504857D01*
X12631000Y-12562000D01*
X12631000Y-12633429D01*
X12616714Y-12690571D01*
X12602428Y-12719143D01*
X12588143Y-12733429D01*
X12559571Y-12747714D01*
X12531000Y-12747714D01*
X12502428Y-12733429D01*
X12488143Y-12719143D01*
X12473857Y-12690571D01*
X12459571Y-12633429D01*
X12459571Y-12562000D01*
X12473857Y-12504857D01*
X12488143Y-12476286D01*
X12502428Y-12462000D01*
X12531000Y-12447714D01*
X12745286Y-12447714D02*
X12745286Y-12504857D01*
X12859571Y-12447714D02*
X12859571Y-12504857D01*
X13302428Y-12862000D02*
X13288143Y-12847714D01*
X13259571Y-12804857D01*
X13245285Y-12776286D01*
X13231000Y-12733429D01*
X13216714Y-12662000D01*
X13216714Y-12604857D01*
X13231000Y-12533429D01*
X13245285Y-12490571D01*
X13259571Y-12462000D01*
X13288143Y-12419143D01*
X13302428Y-12404857D01*
X13459571Y-12576286D02*
X13431000Y-12562000D01*
X13416714Y-12547714D01*
X13402428Y-12519143D01*
X13402428Y-12504857D01*
X13416714Y-12476286D01*
X13431000Y-12462000D01*
X13459571Y-12447714D01*
X13516714Y-12447714D01*
X13545285Y-12462000D01*
X13559571Y-12476286D01*
X13573857Y-12504857D01*
X13573857Y-12519143D01*
X13559571Y-12547714D01*
X13545285Y-12562000D01*
X13516714Y-12576286D01*
X13459571Y-12576286D01*
X13431000Y-12590571D01*
X13416714Y-12604857D01*
X13402428Y-12633429D01*
X13402428Y-12690571D01*
X13416714Y-12719143D01*
X13431000Y-12733429D01*
X13459571Y-12747714D01*
X13516714Y-12747714D01*
X13545285Y-12733429D01*
X13559571Y-12719143D01*
X13573857Y-12690571D01*
X13573857Y-12633429D01*
X13559571Y-12604857D01*
X13545285Y-12590571D01*
X13516714Y-12576286D01*
X13931000Y-12747714D02*
X13931000Y-12447714D01*
X14059571Y-12747714D02*
X14059571Y-12590571D01*
X14045285Y-12562000D01*
X14016714Y-12547714D01*
X13973857Y-12547714D01*
X13945285Y-12562000D01*
X13931000Y-12576286D01*
X14245285Y-12747714D02*
X14216714Y-12733429D01*
X14202428Y-12719143D01*
X14188143Y-12690571D01*
X14188143Y-12604857D01*
X14202428Y-12576286D01*
X14216714Y-12562000D01*
X14245285Y-12547714D01*
X14288143Y-12547714D01*
X14316714Y-12562000D01*
X14331000Y-12576286D01*
X14345285Y-12604857D01*
X14345285Y-12690571D01*
X14331000Y-12719143D01*
X14316714Y-12733429D01*
X14288143Y-12747714D01*
X14245285Y-12747714D01*
X14516714Y-12747714D02*
X14488143Y-12733429D01*
X14473857Y-12704857D01*
X14473857Y-12447714D01*
X14745286Y-12733429D02*
X14716714Y-12747714D01*
X14659571Y-12747714D01*
X14631000Y-12733429D01*
X14616714Y-12704857D01*
X14616714Y-12590571D01*
X14631000Y-12562000D01*
X14659571Y-12547714D01*
X14716714Y-12547714D01*
X14745286Y-12562000D01*
X14759571Y-12590571D01*
X14759571Y-12619143D01*
X14616714Y-12647714D01*
X14873857Y-12733429D02*
X14902428Y-12747714D01*
X14959571Y-12747714D01*
X14988143Y-12733429D01*
X15002428Y-12704857D01*
X15002428Y-12690571D01*
X14988143Y-12662000D01*
X14959571Y-12647714D01*
X14916714Y-12647714D01*
X14888143Y-12633429D01*
X14873857Y-12604857D01*
X14873857Y-12590571D01*
X14888143Y-12562000D01*
X14916714Y-12547714D01*
X14959571Y-12547714D01*
X14988143Y-12562000D01*
X15102428Y-12862000D02*
X15116714Y-12847714D01*
X15145286Y-12804857D01*
X15159571Y-12776286D01*
X15173857Y-12733429D01*
X15188143Y-12662000D01*
X15188143Y-12604857D01*
X15173857Y-12533429D01*
X15159571Y-12490571D01*
X15145286Y-12462000D01*
X15116714Y-12419143D01*
X15102428Y-12404857D01*
M02*
