G04 #@! TF.FileFunction,Copper,L1,Top,Signal*
%FSLAX46Y46*%
G04 Gerber Fmt 4.6, Leading zero omitted, Abs format (unit mm)*
G04 Created by KiCad (PCBNEW 4.0.0-rc1-stable) date 12/10/2015 23:54:29*
%MOMM*%
G01*
G04 APERTURE LIST*
%ADD10C,0.100000*%
%ADD11R,2.000000X2.000000*%
%ADD12C,2.000000*%
%ADD13C,1.998980*%
%ADD14O,1.699260X3.500120*%
%ADD15R,1.574800X2.286000*%
%ADD16O,1.574800X2.286000*%
%ADD17R,2.286000X1.574800*%
%ADD18O,2.286000X1.574800*%
%ADD19R,1.600000X1.600000*%
%ADD20C,1.600000*%
%ADD21O,4.000500X2.499360*%
%ADD22R,2.540000X2.540000*%
%ADD23C,2.540000*%
%ADD24R,2.032000X2.032000*%
%ADD25O,2.032000X2.032000*%
%ADD26O,2.000000X0.900000*%
%ADD27R,2.000000X0.900000*%
%ADD28R,1.727200X2.032000*%
%ADD29O,1.727200X2.032000*%
%ADD30C,0.600000*%
%ADD31C,1.000000*%
%ADD32C,0.250000*%
%ADD33C,0.500000*%
G04 APERTURE END LIST*
D10*
D11*
X136000000Y-58750000D03*
D12*
X136000000Y-61290000D03*
D13*
X149500000Y-73000000D03*
X164500000Y-73000000D03*
D14*
X160000000Y-85500000D03*
X162540000Y-85500000D03*
X157460000Y-85500000D03*
D13*
X110080000Y-59500000D03*
X99920000Y-59500000D03*
X110080000Y-63000000D03*
X99920000Y-63000000D03*
X136000000Y-75830000D03*
X136000000Y-65670000D03*
X136000000Y-79420000D03*
X136000000Y-89580000D03*
X141420000Y-76500000D03*
X151580000Y-76500000D03*
X165080000Y-79500000D03*
X154920000Y-79500000D03*
D15*
X107540000Y-66690000D03*
D16*
X105000000Y-66690000D03*
X102460000Y-66690000D03*
X102460000Y-74310000D03*
X105000000Y-74310000D03*
X107540000Y-74310000D03*
D17*
X142690000Y-81460000D03*
D18*
X142690000Y-84000000D03*
X142690000Y-86540000D03*
X150310000Y-86540000D03*
X150310000Y-84000000D03*
X150310000Y-81460000D03*
D19*
X172000000Y-73000000D03*
D20*
X172000000Y-88000000D03*
D21*
X164000740Y-64000000D03*
X141999260Y-64000000D03*
D22*
X92250000Y-77040000D03*
D23*
X92250000Y-71960000D03*
D22*
X92250000Y-89040000D03*
D23*
X92250000Y-83960000D03*
D22*
X172000000Y-62460000D03*
D23*
X172000000Y-67540000D03*
D13*
X122500000Y-89580000D03*
X122500000Y-79420000D03*
X119000000Y-89580000D03*
X119000000Y-79420000D03*
X129500000Y-89580000D03*
X129500000Y-79420000D03*
X115500000Y-89580000D03*
X115500000Y-79420000D03*
X126000000Y-79420000D03*
X126000000Y-89580000D03*
D24*
X103750000Y-80500000D03*
D25*
X106290000Y-80500000D03*
D22*
X92250000Y-65040000D03*
D23*
X92250000Y-59960000D03*
D26*
X131500000Y-76250000D03*
X113500000Y-76250000D03*
D27*
X113500000Y-64250000D03*
D26*
X113500000Y-65750000D03*
X113500000Y-67250000D03*
X113500000Y-68750000D03*
X113500000Y-70250000D03*
X113500000Y-71750000D03*
X113500000Y-73250000D03*
X113500000Y-74750000D03*
X131500000Y-74750000D03*
X131500000Y-73250000D03*
X131500000Y-71750000D03*
X131500000Y-70250000D03*
X131500000Y-68750000D03*
X131500000Y-67250000D03*
X131500000Y-65750000D03*
X131500000Y-64250000D03*
D28*
X103750000Y-86500000D03*
D29*
X106290000Y-86500000D03*
X108830000Y-86500000D03*
D30*
X110750000Y-65000000D03*
X112500000Y-88500000D03*
X133000000Y-77250000D03*
X103750000Y-76250000D03*
X133750000Y-65500000D03*
X134000000Y-72750000D03*
X111750000Y-65750000D03*
X111750000Y-78500000D03*
X111750000Y-71750000D03*
X124000000Y-78000000D03*
X111750000Y-73250000D03*
X120500000Y-78000000D03*
X111750000Y-74750000D03*
X117000000Y-78000000D03*
X133250000Y-68750000D03*
X128000000Y-78000000D03*
D31*
X172000000Y-73000000D02*
X164500000Y-73000000D01*
X165080000Y-79500000D02*
X172000000Y-79500000D01*
X175750000Y-70500000D02*
X172790000Y-67540000D01*
X175750000Y-75750000D02*
X175750000Y-70500000D01*
X172000000Y-79500000D02*
X175750000Y-75750000D01*
X162540000Y-85500000D02*
X162540000Y-82040000D01*
X162540000Y-82040000D02*
X165080000Y-79500000D01*
X172790000Y-67540000D02*
X172000000Y-67540000D01*
X172000000Y-88000000D02*
X165750000Y-88000000D01*
X165750000Y-88000000D02*
X166000000Y-88000000D01*
X166000000Y-88000000D02*
X165250000Y-88000000D01*
X165250000Y-88000000D02*
X165040000Y-88000000D01*
X165040000Y-88000000D02*
X162540000Y-85500000D01*
D32*
X131250000Y-70250000D02*
X132750000Y-70250000D01*
X136000000Y-73500000D02*
X136000000Y-75830000D01*
X132750000Y-70250000D02*
X136000000Y-73500000D01*
X136000000Y-79420000D02*
X136000000Y-75830000D01*
D31*
X172000000Y-62460000D02*
X165540740Y-62460000D01*
X165540740Y-62460000D02*
X164000740Y-64000000D01*
X151580000Y-76500000D02*
X157250000Y-76500000D01*
X160000000Y-79250000D02*
X160000000Y-85500000D01*
X157250000Y-76500000D02*
X160000000Y-79250000D01*
X149500000Y-73000000D02*
X149500000Y-74420000D01*
X149500000Y-74420000D02*
X151580000Y-76500000D01*
X141999260Y-64000000D02*
X148000000Y-64000000D01*
X149500000Y-65500000D02*
X149500000Y-73000000D01*
X148000000Y-64000000D02*
X149500000Y-65500000D01*
D33*
X92250000Y-83960000D02*
X92250000Y-77040000D01*
X92250000Y-71960000D02*
X91210000Y-71960000D01*
X91210000Y-71960000D02*
X88750000Y-69500000D01*
X88750000Y-69500000D02*
X88750000Y-63250000D01*
X88750000Y-63250000D02*
X90000000Y-62000000D01*
X90000000Y-62000000D02*
X94750000Y-62000000D01*
X94750000Y-62000000D02*
X97250000Y-59500000D01*
X97250000Y-59500000D02*
X99920000Y-59500000D01*
X92250000Y-89040000D02*
X92250000Y-88500000D01*
X92250000Y-88500000D02*
X94500000Y-86250000D01*
X94500000Y-86250000D02*
X94500000Y-71000000D01*
X94500000Y-71000000D02*
X90250000Y-66750000D01*
X90250000Y-66750000D02*
X90250000Y-63250000D01*
X90250000Y-63250000D02*
X90750000Y-62750000D01*
X90750000Y-62750000D02*
X95250000Y-62750000D01*
X95250000Y-62750000D02*
X96750000Y-61250000D01*
X96750000Y-61250000D02*
X102750000Y-61250000D01*
X102750000Y-61250000D02*
X105000000Y-63500000D01*
X105000000Y-63500000D02*
X105000000Y-66690000D01*
D32*
X107540000Y-66690000D02*
X107540000Y-62040000D01*
X107540000Y-62040000D02*
X110080000Y-59500000D01*
X92250000Y-59960000D02*
X95540000Y-59960000D01*
X112500000Y-60580000D02*
X110080000Y-63000000D01*
X112500000Y-58500000D02*
X112500000Y-60580000D01*
X111000000Y-57000000D02*
X112500000Y-58500000D01*
X98500000Y-57000000D02*
X111000000Y-57000000D01*
X95540000Y-59960000D02*
X98500000Y-57000000D01*
X115500000Y-89580000D02*
X119000000Y-89580000D01*
X119000000Y-89580000D02*
X122500000Y-89580000D01*
X122500000Y-89580000D02*
X124080000Y-88000000D01*
X124080000Y-88000000D02*
X127920000Y-88000000D01*
X127920000Y-88000000D02*
X129500000Y-89580000D01*
X115500000Y-89580000D02*
X113580000Y-89580000D01*
X110750000Y-65000000D02*
X111500000Y-64250000D01*
X113580000Y-89580000D02*
X112500000Y-88500000D01*
X119000000Y-89500000D02*
X119000000Y-89580000D01*
X110080000Y-63000000D02*
X110080000Y-62920000D01*
X110080000Y-63000000D02*
X110250000Y-63000000D01*
X110250000Y-63000000D02*
X111500000Y-64250000D01*
X111500000Y-64250000D02*
X113500000Y-64250000D01*
D33*
X119000000Y-89580000D02*
X119000000Y-90000000D01*
D32*
X115670000Y-89580000D02*
X115500000Y-89580000D01*
X131500000Y-76250000D02*
X132000000Y-76250000D01*
X132000000Y-76250000D02*
X133000000Y-77250000D01*
X103750000Y-76250000D02*
X105000000Y-75000000D01*
X105000000Y-75000000D02*
X105000000Y-74310000D01*
X99920000Y-63000000D02*
X99920000Y-67170000D01*
X105000000Y-72250000D02*
X105000000Y-74310000D01*
X99920000Y-67170000D02*
X105000000Y-72250000D01*
D33*
X131500000Y-71750000D02*
X133000000Y-71750000D01*
X133750000Y-65500000D02*
X132500000Y-64250000D01*
X133000000Y-71750000D02*
X134000000Y-72750000D01*
X132500000Y-64250000D02*
X131500000Y-64250000D01*
X103750000Y-86500000D02*
X103750000Y-85000000D01*
X103750000Y-85000000D02*
X105250000Y-83500000D01*
X126000000Y-89580000D02*
X125920000Y-89580000D01*
X125920000Y-89580000D02*
X124250000Y-91250000D01*
X103750000Y-89000000D02*
X103750000Y-86500000D01*
X106000000Y-91250000D02*
X103750000Y-89000000D01*
X124250000Y-91250000D02*
X106000000Y-91250000D01*
X126000000Y-89580000D02*
X126330000Y-89580000D01*
X126330000Y-89580000D02*
X128000000Y-91250000D01*
X128000000Y-91250000D02*
X136750000Y-91250000D01*
X136750000Y-91250000D02*
X139000000Y-89000000D01*
X139000000Y-89000000D02*
X139000000Y-85750000D01*
X139000000Y-85750000D02*
X140750000Y-84000000D01*
X140750000Y-84000000D02*
X142690000Y-84000000D01*
X113500000Y-76250000D02*
X112000000Y-76250000D01*
X112000000Y-76250000D02*
X109000000Y-79250000D01*
X109000000Y-79250000D02*
X109000000Y-82250000D01*
X109000000Y-82250000D02*
X107750000Y-83500000D01*
X107750000Y-83500000D02*
X105250000Y-83500000D01*
X105250000Y-83500000D02*
X103750000Y-82000000D01*
X103750000Y-80500000D02*
X103750000Y-82000000D01*
X102460000Y-74310000D02*
X102460000Y-79210000D01*
X102460000Y-79210000D02*
X103750000Y-80500000D01*
X92250000Y-65040000D02*
X94540000Y-65040000D01*
X102460000Y-75790000D02*
X102460000Y-74310000D01*
X101500000Y-76750000D02*
X102460000Y-75790000D01*
X99000000Y-76750000D02*
X101500000Y-76750000D01*
X98000000Y-75750000D02*
X99000000Y-76750000D01*
X98000000Y-68500000D02*
X98000000Y-75750000D01*
X94540000Y-65040000D02*
X98000000Y-68500000D01*
X131250000Y-71750000D02*
X132250000Y-71750000D01*
X136000000Y-58750000D02*
X135750000Y-58750000D01*
X135750000Y-58750000D02*
X133500000Y-61000000D01*
X133000000Y-64250000D02*
X131250000Y-64250000D01*
X133500000Y-63750000D02*
X133000000Y-64250000D01*
X133500000Y-61000000D02*
X133500000Y-63750000D01*
X136000000Y-58750000D02*
X136750000Y-58750000D01*
X136750000Y-58750000D02*
X138500000Y-60500000D01*
X138500000Y-60500000D02*
X138500000Y-77250000D01*
X138500000Y-77250000D02*
X140750000Y-79500000D01*
X140750000Y-79500000D02*
X144000000Y-79500000D01*
X144000000Y-79500000D02*
X145750000Y-81250000D01*
X145750000Y-81250000D02*
X145750000Y-83000000D01*
X145750000Y-83000000D02*
X144750000Y-84000000D01*
X144750000Y-84000000D02*
X142690000Y-84000000D01*
D32*
X115500000Y-79420000D02*
X112670000Y-79420000D01*
X111750000Y-65750000D02*
X113500000Y-65750000D01*
X112670000Y-79420000D02*
X111750000Y-78500000D01*
D31*
X141420000Y-76500000D02*
X145350000Y-76500000D01*
X145350000Y-76500000D02*
X150310000Y-81460000D01*
X150310000Y-86540000D02*
X156420000Y-86540000D01*
X156420000Y-86540000D02*
X157460000Y-85500000D01*
X154920000Y-79500000D02*
X155000000Y-79500000D01*
X155000000Y-79500000D02*
X157460000Y-81960000D01*
X157460000Y-81960000D02*
X157460000Y-85500000D01*
D32*
X126000000Y-79420000D02*
X125420000Y-79420000D01*
X125420000Y-79420000D02*
X124000000Y-78000000D01*
X111750000Y-71750000D02*
X113500000Y-71750000D01*
X122500000Y-79420000D02*
X121920000Y-79420000D01*
X121920000Y-79420000D02*
X120500000Y-78000000D01*
X111750000Y-73250000D02*
X113500000Y-73250000D01*
X106290000Y-80500000D02*
X106290000Y-80210000D01*
X106290000Y-80210000D02*
X111750000Y-74750000D01*
X119000000Y-79420000D02*
X118420000Y-79420000D01*
X118420000Y-79420000D02*
X117000000Y-78000000D01*
X111750000Y-74750000D02*
X113500000Y-74750000D01*
X119000000Y-79420000D02*
X118170000Y-79420000D01*
X129500000Y-79420000D02*
X129420000Y-79420000D01*
X129420000Y-79420000D02*
X128000000Y-78000000D01*
X133250000Y-68750000D02*
X131500000Y-68750000D01*
X129500000Y-79750000D02*
X129500000Y-79420000D01*
X136000000Y-65670000D02*
X136000000Y-61290000D01*
X142690000Y-81460000D02*
X140540000Y-81460000D01*
X136000000Y-86000000D02*
X136000000Y-89580000D01*
X140540000Y-81460000D02*
X136000000Y-86000000D01*
X106290000Y-86500000D02*
X106290000Y-87040000D01*
X106290000Y-87040000D02*
X107750000Y-88500000D01*
X107750000Y-88500000D02*
X109750000Y-88500000D01*
X109750000Y-88500000D02*
X115549998Y-82700002D01*
X115549998Y-82700002D02*
X130049998Y-82700002D01*
X130049998Y-82700002D02*
X134250000Y-79000000D01*
X134250000Y-79000000D02*
X134250000Y-74000000D01*
X134250000Y-74000000D02*
X133000000Y-73250000D01*
X133000000Y-73250000D02*
X131500000Y-73250000D01*
X108830000Y-86500000D02*
X111000000Y-86500000D01*
X132750000Y-74750000D02*
X131500000Y-74750000D01*
X133750000Y-75250000D02*
X132750000Y-74750000D01*
X133750000Y-78750000D02*
X133750000Y-75250000D01*
X129750000Y-82250000D02*
X133750000Y-78750000D01*
X115250000Y-82250000D02*
X129750000Y-82250000D01*
X111000000Y-86500000D02*
X115250000Y-82250000D01*
M02*
