M48
;DRILL file {KiCad 4.0.0-rc1-stable} date 12/10/2015 22:49:17
;FORMAT={-:-/ absolute / metric / decimal}
FMAT,2
METRIC,TZ
T1C0.400
T2C0.813
T3C1.001
T4C1.016
T5C1.100
T6C1.501
T7C1.524
%
G90
G05
M71
T1
X103.75Y-76.25
X110.75Y-65.
X111.75Y-65.75
X111.75Y-71.75
X111.75Y-73.25
X111.75Y-74.75
X111.75Y-78.5
X112.5Y-88.5
X117.Y-78.
X120.5Y-78.
X124.Y-78.
X128.Y-78.
X133.Y-77.25
X133.25Y-68.75
X133.75Y-65.5
X134.Y-72.75
T2
X102.46Y-66.69
X102.46Y-74.31
X105.Y-66.69
X105.Y-74.31
X107.54Y-66.69
X107.54Y-74.31
X142.69Y-81.46
X142.69Y-84.
X142.69Y-86.54
X150.31Y-81.46
X150.31Y-84.
X150.31Y-86.54
T3
X99.92Y-59.5
X99.92Y-63.
X110.08Y-59.5
X110.08Y-63.
X115.5Y-79.42
X115.5Y-89.58
X119.Y-79.42
X119.Y-89.58
X122.5Y-79.42
X122.5Y-89.58
X126.Y-79.42
X126.Y-89.58
X129.5Y-79.42
X129.5Y-89.58
X136.Y-58.75
X136.Y-61.29
X136.Y-65.67
X136.Y-75.83
X136.Y-79.42
X136.Y-89.58
X141.42Y-76.5
X149.5Y-73.
X151.58Y-76.5
X154.92Y-79.5
X157.46Y-85.5
X160.Y-85.5
X162.54Y-85.5
X164.5Y-73.
X165.08Y-79.5
T4
X103.75Y-80.5
X103.75Y-86.5
X106.29Y-80.5
X106.29Y-86.5
X108.83Y-86.5
T5
X172.Y-73.
X172.Y-88.
T6
X141.999Y-64.
X164.001Y-64.
T7
X92.25Y-59.96
X92.25Y-65.04
X92.25Y-71.96
X92.25Y-77.04
X92.25Y-83.96
X92.25Y-89.04
X172.Y-62.46
X172.Y-67.54
T0
M30
